<svg id="icon_app" data-name="icon/app" xmlns="http://www.w3.org/2000/svg" width="12.46" height="14.872" viewBox="0 0 12.46 14.872">
  <path id="icon_app-2" data-name="icon/app" d="M7.787,14.872a.933.933,0,0,1-.934-.93V11.774H5.607v2.169a.935.935,0,0,1-1.869,0V11.774H3.115a.622.622,0,0,1-.623-.619v-6.2H9.968v6.2a.622.622,0,0,1-.623.619H8.722v2.169A.933.933,0,0,1,7.787,14.872Zm3.739-3.718a.933.933,0,0,1-.934-.93V5.887a.934.934,0,0,1,1.868,0v4.338A.933.933,0,0,1,11.525,11.154Zm-10.591,0A.933.933,0,0,1,0,10.225V5.887a.935.935,0,0,1,1.869,0v4.338A.933.933,0,0,1,.934,11.154ZM9.968,4.338H2.492A3.68,3.68,0,0,1,4.018,1.344L3.2.533a.309.309,0,0,1-.094-.22A.309.309,0,0,1,3.2.092a.31.31,0,0,1,.442,0l.929.917a3.69,3.69,0,0,1,3.3,0L8.8.092a.31.31,0,0,1,.442,0,.309.309,0,0,1,.094.22.309.309,0,0,1-.094.22l-.81.806a3.715,3.715,0,0,1,1.539,3ZM7.475,2.478V3.1H8.1v-.62Zm-3.115,0V3.1h.624v-.62Z" transform="translate(0)" fill="#bfc7d7"/>
</svg>
