<svg xmlns="http://www.w3.org/2000/svg" width="511.998" height="477.036" viewBox="0 0 511.998 477.036">
  <path id="attitude" d="M129.99,235.17a7.2,7.2,0,0,1-5.51-.51c-7.3-3.82-13.17-6.43-19.3-6.78-6.02-.36-12.46,1.47-20.98,6.59a7.3,7.3,0,0,1-7.51-12.51,56.636,56.636,0,0,1,13.84-6.03,47.621,47.621,0,0,1,13.88-1.69,54.429,54.429,0,0,1,13.54,2.09,75.093,75.093,0,0,1,13.21,5.37,7.163,7.163,0,0,1,3.07,9.75,6.754,6.754,0,0,1-4.24,3.72Zm311.26,42.85a19.19,19.19,0,1,1,7.34,26.87,4.848,4.848,0,0,1-.87-.5,19.275,19.275,0,0,1-7.01-25.54C440.88,278.6,441.04,278.31,441.25,278.02Zm14.19,1.67a8.506,8.506,0,0,0-5.13,4v.04a8.525,8.525,0,0,0,3.13,11.65h.04A8.567,8.567,0,0,0,466,285.7a8.684,8.684,0,0,0-4.01-5.18,8.853,8.853,0,0,0-6.55-.83Zm-1.17-70.94a6.3,6.3,0,0,1,.54-.96A30.753,30.753,0,0,1,496,196.52a5.951,5.951,0,0,1,.96.54,30.787,30.787,0,0,1,11.02,41.65,30.752,30.752,0,0,1-53.71-29.96Zm22.12-2.92a18.269,18.269,0,0,0-11.06,8.55v.04a18.312,18.312,0,1,0,25.04-6.84h-.04A18.247,18.247,0,0,0,476.39,205.83ZM462.45,131v22.86a11.523,11.523,0,0,1-11.5,11.49h-13.2v13.21a11.469,11.469,0,0,1-3.37,8.11,11.609,11.609,0,0,1-8.12,3.38H403.4a11.575,11.575,0,0,1-11.49-11.49V165.35h-13.2a11.558,11.558,0,0,1-11.5-11.49V131a11.575,11.575,0,0,1,11.5-11.49h13.2v-13.2A11.558,11.558,0,0,1,403.4,94.82h22.86a11.575,11.575,0,0,1,11.49,11.49v13.2h13.2A11.523,11.523,0,0,1,462.45,131Zm-10.97,22.86V131l-.16-.36-.37-.16H426.79V106.31l-.17-.36-.36-.16H403.4l-.36.15-.16.37v24.17H378.71l-.37.16-.16.36v22.86l.14.36.39.16h24.17v24.18l.14.36.38.16h22.86l.37-.16.16-.36V154.38h24.16l.37-.13.16-.39ZM379.25,53.16V82.11A13.811,13.811,0,0,1,365.5,95.87H344.03v21.47a13.794,13.794,0,0,1-13.75,13.75H301.33a13.794,13.794,0,0,1-13.75-13.75V95.87H266.1a13.828,13.828,0,0,1-13.75-13.76V53.16A13.759,13.759,0,0,1,266.1,39.42h21.48V17.93A13.759,13.759,0,0,1,301.33,4.19h28.95a13.811,13.811,0,0,1,13.75,13.74V39.42H365.5a13.776,13.776,0,0,1,13.75,13.74ZM368.28,82.11V53.16a2.8,2.8,0,0,0-2.78-2.78H333.06V17.93a2.791,2.791,0,0,0-.8-1.96,2.84,2.84,0,0,0-1.98-.81H301.33a2.8,2.8,0,0,0-2.78,2.77V50.38H266.1a2.8,2.8,0,0,0-2.78,2.78V82.11a2.783,2.783,0,0,0,2.78,2.79h32.45v32.44a2.766,2.766,0,0,0,2.78,2.78h28.95a2.836,2.836,0,0,0,2.78-2.78V84.9H365.5a2.817,2.817,0,0,0,2.78-2.79ZM154.6,437.95c.05,2.05.05,4.09-.05,6.14a124.583,124.583,0,0,1-3.98,26.79,8.3,8.3,0,0,1-15.21,2c-1.94-3.33-.93-5.75-.14-8.97a93.594,93.594,0,0,0,2.68-18.55l.11-2.4c-20.9,5.69-47.94,10.49-69.07,6.53-13.31-2.43-26.31-9.17-30.95-22.72a36.117,36.117,0,0,1-1.68-13.93,56.91,56.91,0,0,1,2.2-11.85,85.974,85.974,0,0,1,4.85-12.55c-4.04-19.8-5.17-45.15-5.37-65.41v-1.47c-8.59-.51-20.33.31-27.77-4.65C.04,310.23-1.96,297.78,1.7,286.79a46.665,46.665,0,0,1,4.64-9.59l17.77-36.31c4.34-8.83,6.49-13.83,7.51-17.77.96-3.83.86-6.68.65-11.22v-.05c-.74-20.78.26-42.76,9.05-61.99L9.97,136.28a8.28,8.28,0,0,1-4.4-4.54,8.7,8.7,0,0,1-.54-3.79c.28-3.28,2.75-5.91,4.63-8.41C45.04,72.35,82.53,40.93,119.78,22.23,163.33.34,206.62-4.26,246.03,3.55c1.69.36,3.47.71,5.27,1.12,1.68.36,3.41.82,5.2,1.28a1.7,1.7,0,0,1,1.23,1.53V21.36a1.6,1.6,0,0,1-1.58,1.59,1.876,1.876,0,0,1-.57-.1c-1.99-.57-4.08-1.07-6.28-1.64q-3.21-.75-6.42-1.38c-35.44-6.99-74.39-2.96-113.8,16.39C94.52,53.17,59.49,81.91,26.16,125.26c9.8,4.29,21.54,8.68,30.87,13.53,9.5,3.42,20.79,3.11,32.84,1.07,12.3-2.09,25.37-6.08,38.14-9.95,9.39-2.87,18.57-5.67,27.36-7.77a124.577,124.577,0,0,1,19.52-3.22c5.01-.36,11.15-1.14,13.82,4.34a8.291,8.291,0,0,1,.45,6.34c-4.18,12.71-6.07,23.69-5.97,33.33a55.981,55.981,0,0,0,5.57,24.87,63.463,63.463,0,0,0,15.11,19.19,120.129,120.129,0,0,0,22.71,15.42,8.375,8.375,0,0,1,3.99,4.96,8.24,8.24,0,0,1-5.62,10.25,8.154,8.154,0,0,1-6.28-.66,138.964,138.964,0,0,1-26.44-18.17A77.79,77.79,0,0,1,173.9,195.1a72.119,72.119,0,0,1-7.15-27.31c-.61-9.5.41-19.97,3.26-31.66a149.315,149.315,0,0,0-16.59,3.58c-6.73,1.78-13.67,3.88-20.67,6.02-13.17,3.98-26.6,8.12-39.67,10.41-12.71,2.25-25.06,2.76-36.45-.09-7.86,16.59-8.62,37.14-7.91,55.13v.16c.25,6.12.4,10-.87,15.11-1.22,5-3.78,11.12-8.99,21.74L20.89,285.26l-.4.61a29.065,29.065,0,0,0-2.96,5.77,15.721,15.721,0,0,0-1.03,5.16c0,3.87,1.94,7.35,6.23,7.35,6.54-.05,14.3.82,20.98,1.22a6.058,6.058,0,0,1,.92-.2,8.6,8.6,0,0,1,1.28-.11c6.13,0,13.63,1.03,19.85,1.64a8.349,8.349,0,0,1,5.63,2.91,8.216,8.216,0,0,1,1.94,6.02,8.369,8.369,0,0,1-2.92,5.68,8.181,8.181,0,0,1-6.02,1.93c-3.27-.26-6.58-.41-9.85-.61v.31c.05,4.79.1,9.54.25,14.34.16,4.39.36,8.84.72,13.38,18.59,8.64,29.14-1.01,34.92,1.27a8.223,8.223,0,0,1,4.59,4.39v.06a8.081,8.081,0,0,1,.1,6.27,8.223,8.223,0,0,1-4.38,4.6h-.06a47.343,47.343,0,0,1-33.74,1.63l.35,2.96c.31,2.51.72,5.16,1.23,7.86.46,2.66,1.02,5.32,1.58,8.02v.1a8.723,8.723,0,0,1,.05,3.01,8.027,8.027,0,0,1-1.07,2.87,80.464,80.464,0,0,0-4.49,10.92,38.821,38.821,0,0,0-1.84,9.24c-.7,12.53,7.89,17.39,19.1,19.4,19.47,3.6,44.51-1.58,63.4-6.69,13.57-3.77,27.26-8.6,39.67-15.32,10.27-5.59,17.82-10.49,23.28-21.18l.05-.1c6.43-12.59,10.33-28.93,16.75-42.33,3.52-7.4,7.76-14.29,12.61-18.02,8.69-6.69,18.79,6.65,10.11,13.18-2.86,2.19-5.82,7.5-8.53,13.42-2.76,6.13-5.26,12.92-7.04,17.87-.93,2.3-1.75,4.74-2.56,7.04a126.739,126.739,0,0,1-7.25,17.67,51.737,51.737,0,0,1-13.27,16.49,110.216,110.216,0,0,1-15.98,10.46,170.51,170.51,0,0,1-28.49,12.2ZM414.07,210.44c.75,32.92-7.23,60.2-26.11,91.05-17.15,28.03-43.24,53.91-79.9,75.41a10.369,10.369,0,0,1-1.52.71l-.26.05c.05,4.85.2,9.65.51,14.4.31,5.11.76,10.16,1.38,15.16a238.234,238.234,0,0,0,5.15,28.34,235.806,235.806,0,0,0,8.23,26.54,8.3,8.3,0,0,1-11.19,10.47,8.268,8.268,0,0,1-4.33-4.65,251.11,251.11,0,0,1-14.35-58.7,269.831,269.831,0,0,1-1.99-32.02,327.068,327.068,0,0,1,1.68-34.05,8.327,8.327,0,0,1,9.09-7.4h.05a8.324,8.324,0,0,1,5.52,3.01,8.46,8.46,0,0,1,1.83,6.07c-.25,2.71-.51,5.47-.71,8.28l-.36,5.15c30.99-19.45,53.2-42.42,67.85-67.03,16.64-27.92,23.64-51.83,22.82-81.49a1.585,1.585,0,0,1,1.53-1.63h13.43a1.591,1.591,0,0,1,1.46.97,4.145,4.145,0,0,1,.19,1.36ZM266.15,263.05a8.25,8.25,0,0,1-5.3,3.42,8.35,8.35,0,0,1-6.19-1.33c-7.29-5.14-3.26-20.4.77-26.64a30.439,30.439,0,0,1,5.92-6.69,33.106,33.106,0,0,1,30.23-6.64c6.63,1.89,11.43,4.54,14.7,7.81,10.29,10.3,5.28,24.69-.11,35.99-1.73,3.63-5.86,12.31-11.28,22.26-5.36,9.96-11.99,21.09-18.58,29.57-9.49,12.25-18.99,20.51-26.7,19.24-7.81-1.28-13.48-12.11-14.9-38.03v-.06c-.49-10.64,16.04-11.82,16.53-.76v.1c.57,10,2.14,14.34,4.24,15.11,1.89.71,4.7-1.84,7.71-5.77,6.02-7.77,12.15-18.23,17.26-27.57,5.05-9.39,9.08-17.72,10.71-21.19,1.85-3.87,4.9-10.46,4.4-14.8a4.7,4.7,0,0,0-1.95-2.96,18.278,18.278,0,0,0-18.12-1.99c-4.79,2.3-8.04,6.27-8.32,11.69.17,3.46,1.24,5.9-1.02,9.24Z" transform="translate(-0.002 -0.003)" fill="#fff"/>
</svg>
