<svg xmlns="http://www.w3.org/2000/svg" xmlns:xlink="http://www.w3.org/1999/xlink" width="17.684" height="21.217" viewBox="0 0 17.684 21.217">
  <defs>
    <clipPath id="clip-path">
      <rect id="Rectangle_1557" data-name="Rectangle 1557" width="17.683" height="21.217" fill="#bfc7d7"/>
    </clipPath>
  </defs>
  <g id="Group_300" data-name="Group 300" clip-path="url(#clip-path)">
    <path id="Path_318" data-name="Path 318" d="M44.719,0c.276.055.553.1.827.167a5.144,5.144,0,0,1,3.737,4.152,4.963,4.963,0,0,1-.73,3.524A5,5,0,0,1,44.561,10.2,5.111,5.111,0,0,1,43.179.106c.195-.04.392-.071.587-.106ZM48.1,5.134a3.857,3.857,0,1,0-1.144,2.735A3.868,3.868,0,0,0,48.1,5.134" transform="translate(-35.525)" fill="#bfc7d7"/>
    <path id="Path_319" data-name="Path 319" d="M8.839,122.328H3.807a3.967,3.967,0,0,1-2.387-.678,3.128,3.128,0,0,1-1.37-2.336,11.018,11.018,0,0,1,.718-5.158,4.325,4.325,0,0,1,1.937-2.32,3.884,3.884,0,0,1,1.929-.467,1.471,1.471,0,0,1,.635.214c.32.174.617.392.928.583a4.715,4.715,0,0,0,5.306-.007c.246-.152.5-.3.729-.473a1.772,1.772,0,0,1,1.394-.289,3.932,3.932,0,0,1,3.007,2.154,8.849,8.849,0,0,1,.968,3.441,17.2,17.2,0,0,1,.081,1.9,3.388,3.388,0,0,1-3.148,3.394q-.391.038-.785.039-2.454.005-4.909,0m0-1.243h0c1.754,0,3.507.015,5.261,0a2.208,2.208,0,0,0,2.339-2.4,16.107,16.107,0,0,0-.088-1.653,7.64,7.64,0,0,0-.791-2.831,2.674,2.674,0,0,0-2.291-1.57.5.5,0,0,0-.27.061c-.273.161-.536.34-.8.509a5.891,5.891,0,0,1-6.078.358c-.487-.239-.931-.564-1.4-.846a.453.453,0,0,0-.224-.089,2.53,2.53,0,0,0-1.754.726,4.038,4.038,0,0,0-.883,1.411,10.666,10.666,0,0,0-.612,4.17,2.06,2.06,0,0,0,1.045,1.82,2.856,2.856,0,0,0,1.494.345H8.844" transform="translate(0 -101.111)" fill="#bfc7d7"/>
  </g>
</svg>
