<svg id="cross_platform" xmlns="http://www.w3.org/2000/svg" width="122.879" height="86.685" viewBox="0 0 122.879 86.685">
  <path id="Path_21702" data-name="Path 21702" d="M53.995,73.994h25.4c.064,4.4,1.872,8.325,6.783,11.429H47.22c3.92-2.847,6.793-6.307,6.775-11.429ZM41.118,30.451V83.582a1.847,1.847,0,0,1-1.84,1.841H1.841A1.847,1.847,0,0,1,0,83.582V30.451a1.847,1.847,0,0,1,1.841-1.84H39.273a1.847,1.847,0,0,1,1.845,1.84ZM20.557,79.3a2.11,2.11,0,1,1-2.11,2.109,2.111,2.111,0,0,1,2.11-2.109ZM38.622,31.9V77.432H2.755V31.9Zm63.918,12.32h15.942a4.4,4.4,0,0,1,4.4,4.4V82.287a4.4,4.4,0,0,1-4.4,4.4H102.54a4.4,4.4,0,0,1-4.4-4.4V48.608a4.391,4.391,0,0,1,4.4-4.393ZM99.657,80.576h21.7V49.012h-21.7V80.576ZM110.5,81.952A1.808,1.808,0,1,1,108.7,83.76a1.8,1.8,0,0,1,1.809-1.808ZM17.5,0h97.411a2.805,2.805,0,0,1,2.8,2.8V34.53h-3.976V6.268a2.486,2.486,0,0,0-2.479-2.479H21.145a2.486,2.486,0,0,0-2.479,2.479V22.446H14.7V2.8A2.805,2.805,0,0,1,17.5,0ZM47.03,60.417H92.508V70.13H47.03V60.417Z" fill="#fff" fill-rule="evenodd"/>
</svg>
