<svg xmlns="http://www.w3.org/2000/svg" width="206" height="252" viewBox="0 0 206 252">
  <path id="digital_reading" d="M174.55,144.5h0a9.578,9.578,0,0,0-9.2-6.5H159V23A20.861,20.861,0,0,0,138,2H25A23.358,23.358,0,0,0,2,25V208c0,11.9,10.95,22,22.75,22H138.963a2.129,2.129,0,0,1,2.18,2.188c-.1,1.266-1.153,1.812-2.393,1.812H93.25L128,254h80Zm-92.5,75.7a5.468,5.468,0,0,1-5.6-5.6,5.665,5.665,0,0,1,5.6-5.6,5.468,5.468,0,0,1,5.6,5.6A5.528,5.528,0,0,1,82.05,220.2ZM144,138H124.35a10.124,10.124,0,0,0-9.8,10h0a10.124,10.124,0,0,0,9.8,10h19.8v42H18V31H144ZM117.683,92.929V114.35a7.659,7.659,0,0,1-7.65,7.65H39.65A7.659,7.659,0,0,1,32,114.35V56.208a7.659,7.659,0,0,1,7.65-7.65H82.491L70.251,60.8H44.24V109.76h61.2v-4.59Zm12.24-26.011L105.442,42.437v13.77a36.721,36.721,0,0,0-36.7,35.428,54.881,54.881,0,0,1,36.7-14.008V91.4Z" transform="translate(-2 -2)" fill="#fff"/>
</svg>
