<svg xmlns="http://www.w3.org/2000/svg" width="999.971" height="956.239" viewBox="0 0 999.971 956.239">
  <g id="effective" transform="translate(-12.066 -33.861)">
    <path id="Path_21706" data-name="Path 21706" d="M490.2,990.1c-5.9,0-11.9-.1-17.8-.3A478.137,478.137,0,1,1,684.6,75.3a40,40,0,0,1-32.5,73.1,398.223,398.223,0,1,0,236,363.7V471.4a40,40,0,0,1,80,0v40.7a478.367,478.367,0,0,1-477.9,478Z" fill="#fff"/>
    <path id="Path_21707" data-name="Path 21707" d="M490.1,639.9a40.04,40.04,0,0,1-28.3-11.7L330.4,496.7A40.022,40.022,0,0,1,387,440.1L490.1,543.2,943.7,89.7a40.022,40.022,0,0,1,56.6,56.6L518.4,628.2a40.04,40.04,0,0,1-28.3,11.7Z" fill="#fff"/>
  </g>
</svg>
