<svg xmlns="http://www.w3.org/2000/svg" width="25" height="19.282" viewBox="0 0 25 19.282">
  <path id="envelope" d="M19,1H5C2.24,1,0,2.861,0,5.155v9.972c0,2.294,2.24,4.152,5,4.155H19c2.76,0,5-1.861,5-4.155V5.155C24,2.861,21.76,1,19,1ZM5,2.662H19A3.049,3.049,0,0,1,21.78,4.23l-7.658,6.365a3.455,3.455,0,0,1-4.244,0L2.22,4.23A3.049,3.049,0,0,1,5,2.662ZM19,17.62H5a2.782,2.782,0,0,1-3-2.493V6.4l6.464,5.37a5.753,5.753,0,0,0,7.072,0L22,6.4v8.726A2.782,2.782,0,0,1,19,17.62Z" transform="translate(0.5 -0.5)" fill="#bfc7d7" stroke="#bfc7d7" stroke-width="1"/>
</svg>
