<svg xmlns="http://www.w3.org/2000/svg" width="18.363" height="18.218" viewBox="0 0 18.363 18.218">
  <g id="Group_10691" data-name="Group 10691" transform="translate(0 -0.004)">
    <path id="Path_12439" data-name="Path 12439" d="M-500.927,281.87c-.42.579-.836,1.16-1.263,1.734a.31.31,0,0,0-.047.354c.249.581.484,1.168.724,1.752.14.342.087.484-.241.646-.583.287-1.165.576-1.751.858a.24.24,0,0,0-.157.226c-.06.672-.13,1.343-.2,2.014a.362.362,0,0,1-.122.289.362.362,0,0,1-.3.085c-.669-.014-1.337-.029-2.006-.053a.256.256,0,0,0-.261.132c-.35.548-.708,1.091-1.065,1.636a.409.409,0,0,1-.282.247.409.409,0,0,1-.364-.086c-.567-.318-1.137-.632-1.7-.956a.255.255,0,0,0-.293,0c-.569.326-1.143.644-1.717.964a.388.388,0,0,1-.615-.156c-.356-.544-.715-1.087-1.064-1.636a.282.282,0,0,0-.29-.145c-.65.025-1.3.038-1.952.053-.317.007-.434-.091-.466-.41q-.1-1-.186-2a.213.213,0,0,0-.138-.2c-.591-.286-1.178-.577-1.767-.866-.329-.162-.382-.3-.241-.645.24-.585.475-1.172.724-1.752a.309.309,0,0,0-.047-.354c-.382-.512-.754-1.031-1.129-1.548-.2-.278-.181-.43.087-.654.5-.422,1-.847,1.512-1.264a.231.231,0,0,0,.087-.247q-.155-1-.3-2a.376.376,0,0,1,.055-.31.376.376,0,0,1,.271-.159c.652-.145,1.3-.289,1.958-.425a.268.268,0,0,0,.23-.2c.206-.616.423-1.229.637-1.842.113-.325.253-.4.587-.306.633.173,1.266.344,1.9.521a.228.228,0,0,0,.252-.061c.481-.456.968-.906,1.454-1.357a.391.391,0,0,1,.319-.164.391.391,0,0,1,.318.164c.486.451.973.9,1.454,1.357a.23.23,0,0,0,.252.063c.631-.177,1.264-.349,1.9-.522.331-.091.475-.016.588.306.214.613.432,1.226.637,1.842a.268.268,0,0,0,.232.2q.971.205,1.94.424a.387.387,0,0,1,.292.173.387.387,0,0,1,.044.336c-.1.661-.2,1.321-.293,1.983a.292.292,0,0,0,.09.222c.493.425,1,.838,1.491,1.26a2.47,2.47,0,0,1,.235.264Zm-11.189,9.081c.068-.036.121-.062.172-.091.521-.29,1.045-.576,1.563-.872a.5.5,0,0,1,.554,0c.4.234.811.456,1.218.682.17.1.342.188.519.285.367-.565.728-1.113,1.08-1.666a.479.479,0,0,1,.459-.248c.6.02,1.206.03,1.809.044h.2c.014-.128.026-.234.036-.341q.083-.856.165-1.711a.367.367,0,0,1,.235-.33c.071-.03.139-.068.209-.1l1.632-.8c-.027-.07-.048-.131-.073-.19-.226-.552-.448-1.105-.682-1.654a.478.478,0,0,1,.067-.531c.233-.3.453-.616.678-.924l.5-.683c-.518-.437-1.02-.868-1.532-1.289a.475.475,0,0,1-.184-.487c.072-.448.136-.9.2-1.345.031-.209.056-.419.085-.636-.655-.143-1.283-.285-1.913-.415a.509.509,0,0,1-.433-.367c-.19-.578-.4-1.149-.6-1.723-.017-.048-.04-.094-.062-.146-.653.177-1.293.346-1.929.525a.461.461,0,0,1-.489-.121c-.433-.412-.873-.816-1.31-1.222-.051-.047-.1-.093-.158-.143-.5.464-.984.913-1.466,1.369a.459.459,0,0,1-.49.116c-.377-.113-.758-.211-1.138-.314l-.793-.213c-.024.065-.041.109-.057.153-.2.574-.407,1.146-.6,1.722a.475.475,0,0,1-.385.352c-.3.059-.595.126-.892.192l-1.061.237a.847.847,0,0,0,.007.142c.087.6.166,1.194.266,1.788a.535.535,0,0,1-.208.563c-.5.411-1,.836-1.5,1.261.375.515.733,1.03,1.118,1.523a.625.625,0,0,1,.083.721c-.251.566-.47,1.145-.707,1.73.067.035.122.067.18.1.54.266,1.079.535,1.622.8a.433.433,0,0,1,.273.384c.025.315.057.63.088.945.034.355.069.709.1,1.074h.194c.591-.014,1.182-.02,1.773-.045a.522.522,0,0,1,.515.275C-512.835,289.857-512.479,290.394-512.116,290.951Z" transform="translate(519.281 -273.581)" fill="#bfc7d7"/>
    <path id="Path_12440" data-name="Path 12440" d="M-448.213,352.429a6.059,6.059,0,0,1-6.058-6.061,6.059,6.059,0,0,1,1.776-4.294,6.059,6.059,0,0,1,4.3-1.774,6.059,6.059,0,0,1,4.29,1.781,6.06,6.06,0,0,1,1.768,4.3,6.059,6.059,0,0,1-6.071,6.05Zm.006-.729a5.348,5.348,0,0,0,5.336-5.336,5.349,5.349,0,0,0-5.337-5.336,5.349,5.349,0,0,0-5.336,5.337,5.349,5.349,0,0,0,5.338,5.335Z" transform="translate(457.384 -337.105)" fill="#bfc7d7"/>
    <path id="Path_12441" data-name="Path 12441" d="M-407.288,423.755l1.3-1.487q1.128-1.286,2.258-2.57a.6.6,0,0,1,.256-.179.324.324,0,0,1,.385.155.35.35,0,0,1-.044.446c-.28.326-.565.648-.848.971l-2.93,3.339c-.264.3-.447.3-.731.021l-2.263-2.271a.956.956,0,0,1-.129-.148.355.355,0,0,1,.052-.444.356.356,0,0,1,.443-.057,1,1,0,0,1,.161.141l1.936,1.941C-407.392,423.658-407.344,423.7-407.288,423.755Z" transform="translate(415.313 -412.516)" fill="#bfc7d7"/>
  </g>
</svg>
