<svg xmlns="http://www.w3.org/2000/svg" width="22.744" height="22.744" viewBox="0 0 22.744 22.744">
  <path id="Instagram" d="M15.968,22.744H6.775A6.783,6.783,0,0,1,0,15.968V6.775A6.783,6.783,0,0,1,6.775,0h9.193a6.783,6.783,0,0,1,6.775,6.775v9.193A6.783,6.783,0,0,1,15.968,22.744ZM6.775,2.288A4.493,4.493,0,0,0,2.288,6.775v9.193a4.492,4.492,0,0,0,4.488,4.487h9.193a4.492,4.492,0,0,0,4.487-4.487V6.775a4.492,4.492,0,0,0-4.487-4.488Zm4.6,14.966a5.882,5.882,0,1,1,5.882-5.882A5.889,5.889,0,0,1,11.372,17.254Zm0-9.476a3.594,3.594,0,1,0,3.594,3.594A3.6,3.6,0,0,0,11.372,7.778Zm5.893-.834a1.41,1.41,0,1,1,1.41-1.409A1.411,1.411,0,0,1,17.265,6.943Z" fill="#fff"/>
</svg>
