<svg xmlns="http://www.w3.org/2000/svg" width="46" height="42.988" viewBox="0 0 46 42.988">
  <path id="linkedin" d="M8,3.012A6.688,6.688,0,0,0,3.754,4.365,4.6,4.6,0,0,0,2.012,7.947c0,2.744,2.457,4.867,5.705,4.994A.988.988,0,0,0,8,12.988a6.55,6.55,0,0,0,4.313-1.424,4.741,4.741,0,0,0,1.676-3.617q0-.027,0-.055C13.832,5.132,11.375,3.012,8,3.012ZM8,4.988c2.609,0,3.9,1.281,4.006,2.984a2.672,2.672,0,0,1-.975,2.09A4.584,4.584,0,0,1,8,11.012c-2.6,0-4.012-1.413-4.012-3.064A2.522,2.522,0,0,1,5,5.9,4.747,4.747,0,0,1,8,4.988ZM3,15a1,1,0,0,0-1,1V45a1,1,0,0,0,1,1H13a1,1,0,0,0,1-1V16a1,1,0,0,0-1-1Zm15,0a1,1,0,0,0-1,1V45a1,1,0,0,0,1,1H28a1,1,0,0,0,1-1V28.5a3.5,3.5,0,0,1,7,0V45a1,1,0,0,0,1,1H47a1,1,0,0,0,1-1V28c0-4.127-1.212-7.4-3.256-9.625A10.623,10.623,0,0,0,36.787,15,12.031,12.031,0,0,0,29,17.6V16a1,1,0,0,0-1-1ZM4,17h8V44H4Zm15,0h8v2.639a1,1,0,0,0,1.744.668A11.414,11.414,0,0,1,36.787,17a8.54,8.54,0,0,1,6.482,2.727C44.924,21.531,46,24.262,46,28V44H38V28.5a1,1,0,0,0-.084-.41A5.464,5.464,0,0,0,27,28.5V44H19Z" transform="translate(-2 -3.012)" fill="#fff"/>
</svg>
