<svg id="problem_solving" xmlns="http://www.w3.org/2000/svg" width="119.076" height="122.882" viewBox="0 0 119.076 122.882">
  <path id="Path_21703" data-name="Path 21703" d="M87.29,77.05a8.461,8.461,0,0,1-3.17,2.99,8.079,8.079,0,0,1-3.56.97,7.183,7.183,0,0,1-5.71-2.49l12.44-1.47ZM82.09,2.37A2.493,2.493,0,0,1,84.7.01V0a.985.985,0,0,1,.17.02,2.5,2.5,0,0,1,2.21,2.6h.01a.57.57,0,0,1-.01.13l-.3,5.33h.01a.986.986,0,0,1-.02.17,2.463,2.463,0,0,1-.82,1.58,2.5,2.5,0,0,1-1.78.63v.01a.985.985,0,0,1-.17-.02,2.463,2.463,0,0,1-1.58-.82,2.5,2.5,0,0,1-.63-1.78h-.01a.57.57,0,0,1,.01-.13l.3-5.35Zm-27.4,8.51a2.5,2.5,0,0,1,3.52-3.56l3.89,3.86a2.5,2.5,0,0,1-1.75,4.28,2.463,2.463,0,0,1-1.77-.72l-3.89-3.86ZM47.28,38.2a2.492,2.492,0,0,1-1.73-.73,2.553,2.553,0,0,1-.74-1.77,2.492,2.492,0,0,1,2.5-2.5l5.47-.01a2.492,2.492,0,0,1,2.5,2.5v.04h.01l-.01.09a2.5,2.5,0,0,1-2.5,2.37h-.04v.01H47.28Zm68.31-5.62h.08a2.477,2.477,0,0,1,1.71.61,2.574,2.574,0,0,1,.86,1.71v.03c.01,0,0,.07,0,.08a2.477,2.477,0,0,1-.61,1.71,2.574,2.574,0,0,1-1.71.86l-5.46.4a2.5,2.5,0,0,1-2.06-4.13,2.531,2.531,0,0,1,1.71-.86c1.82-.14,3.65-.3,5.48-.41Zm-10.1-22.11a2.531,2.531,0,0,1,1.62-1.01,2.482,2.482,0,0,1,1.86.44l.01.01a2.468,2.468,0,0,1,1.01,1.62,2.519,2.519,0,0,1-.43,1.86l-3.18,4.45a2.517,2.517,0,0,1-1.63,1.02,2.472,2.472,0,0,1-1.86-.44,2.542,2.542,0,0,1-1.02-1.63,2.482,2.482,0,0,1,.44-1.86l3.18-4.46Zm-76.59,100V74.7H44.99c6.82,1.22,13.64,4.92,20.47,9.22h12.5c5.66.34,8.62,6.08,3.13,9.84-4.38,3.21-10.16,3.03-16.09,2.5-4.09-.2-4.27,5.29,0,5.31,1.48.11,3.09-.23,4.5-.23,7.4-.01,13.49-1.42,17.22-7.26L88.6,89.7l18.59-9.22c9.3-3.06,15.91,6.67,9.06,13.43a243.582,243.582,0,0,1-41.4,24.37c-10.26,6.24-20.52,6.03-30.77,0L28.9,110.47ZM0,71.26H24.06v42.8H0V71.26Zm89.42-7.24-.46,1.87-.14,1.34-16.23,1.9a19.825,19.825,0,0,0-.36-3.1l17.19-2.01Zm-.73,6.14-.01.81.01.28a10.53,10.53,0,0,1-.03,1.59L88.38,74,73.3,75.77l-.24-.61-.51-2.42.01-.7,16.13-1.88Z" fill="#fff"/>
  <path id="Path_21704" data-name="Path 21704" d="M67.33,54.79a31.092,31.092,0,0,1-5.01-7.65,22.775,22.775,0,0,1-1.96-9.89,23.041,23.041,0,0,1,3.1-10.41c.01-.03.03-.04.04-.07h0a19.909,19.909,0,0,1,9.99-8.19,21.577,21.577,0,0,1,10.16-1.13,23.174,23.174,0,0,1,9.56,3.41,19.943,19.943,0,0,1,8.13,9.82,21.087,21.087,0,0,1,1.36,7.48,21.439,21.439,0,0,1-1.91,8.67c-2.06,4.68-6.69,9.62-9.77,14.19a1.339,1.339,0,0,0-.49-.03L71.52,63.21a25.36,25.36,0,0,0-4.19-8.42Z" fill="#fff"/>
  <path id="Path_21705" data-name="Path 21705" d="M73.02,51.8h0a2.589,2.589,0,0,1,.74-3.57,2.193,2.193,0,0,1,1.34-.28l-.01-.02c1.72.38,2.58-.26,2.27-1.54l-2.09-3.63a.871.871,0,0,1,.31-1.17l3.34-1.93c1.57-.13,1.07,1.39,1.29,2.39.36,2.28,4,2.31,5.81,1.13a2.817,2.817,0,0,0,.95-1.14,2.9,2.9,0,0,0-1.39-4.17c-.83-.45-1.46-.81-.65-1.71l3.17-1.81a.871.871,0,0,1,1.17.31l1.83,3.17c1.05,1.39,2.23,1.09,2.82-.8l.01.02a2.246,2.246,0,0,1,.91-1.02,2.589,2.589,0,0,1,3.46,1.13h0a2.579,2.579,0,0,1-.75,3.56,2.179,2.179,0,0,1-1.34.28l.01.02c-1.94-.43-2.78.44-2.11,2.04l1.83,3.17a.862.862,0,0,1-.31,1.17l-3.3,1.91c-1.5.55-2.55-.76-2.13-2.62l-.02.01c.04-.46.22-.47-.02-.89a3.038,3.038,0,0,0-3.82-1.2c-1.3.75-2.45,3.27-1.78,4.43a2.246,2.246,0,0,0,1.02.91l-.06.04c1.83.58,2.17,1.69.94,2.71l-3.34,1.93a.862.862,0,0,1-1.17-.31l-2.09-3.63c-.95-.91-1.94-.48-2.47,1.2l-.01-.02a2.213,2.213,0,0,1-.92,1.02,2.518,2.518,0,0,1-3.44-1.09ZM65.4,37.29a2.589,2.589,0,0,0,3.46,1.13,2.246,2.246,0,0,0,.91-1.02l.04.06c.53-1.68,1.52-2.11,2.47-1.2l2.09,3.61a.853.853,0,0,0,1.17.31l3.21-1.85c2.34-1.01,2.23.3,2.18,1.79-.1,3.61,4.8,3.13,4.88.22.07-2.29-2.15-1.99-2.67-3.33-.2-.52.12-1.15.85-1.71l3.17-1.83a.853.853,0,0,0,.31-1.17l-1.83-3.16c-.67-1.61.17-2.47,2.11-2.04l-.04-.06a2.25,2.25,0,0,0,1.34-.28,2.724,2.724,0,0,0-2.71-4.69,2.326,2.326,0,0,0-.92,1.02l-.01-.02c-.6,1.89-1.77,2.19-2.82.8l-1.83-3.18a.853.853,0,0,0-1.17-.31l-3.3,1.91c-1.22,1.02-.88,2.13.94,2.71l-.01.01a2.246,2.246,0,0,1,1.02.91,2.724,2.724,0,0,1-4.69,2.71,2.179,2.179,0,0,1-.28-1.34l-.06.04c.41-1.87-.38-2.72-1.88-2.17l-3.35,1.93a.853.853,0,0,0-.31,1.17l2.09,3.63c.31,1.28-.55,1.92-2.27,1.54l.01.02a2.25,2.25,0,0,0-1.34.28,2.574,2.574,0,0,0-.76,3.56Z" fill="#fff" fill-rule="evenodd"/>
</svg>
