<svg xmlns="http://www.w3.org/2000/svg" width="23.031" height="23.129" viewBox="0 0 23.031 23.129">
  <g id="Huge-icon_smart_house_outline_home_2" data-name="Huge-icon/smart house/outline/home 2" transform="translate(0.752 0.851)">
    <path id="Vector" d="M6.264,21.526h9a4.4,4.4,0,0,0,4.5-4.294v-5.25a2.809,2.809,0,0,1,.882-2.032,2.792,2.792,0,0,0-.358-4.357L13.41.821a4.675,4.675,0,0,0-5.293,0L1.24,5.594A2.792,2.792,0,0,0,.882,9.95a2.809,2.809,0,0,1,.882,2.032v5.25a4.4,4.4,0,0,0,4.5,4.294Z" fill="none" stroke="#bfc7d7" stroke-width="1.5"/>
    <path id="Vector-2" data-name="Vector" d="M6,14a7.623,7.623,0,0,0,7.175,0" transform="translate(1.175 1.201)" fill="none" stroke="#bfc7d7" stroke-width="1.5"/>
  </g>
</svg>
