<svg xmlns="http://www.w3.org/2000/svg" width="16.814" height="18.983" viewBox="0 0 16.814 18.983">
  <g id="COMPER_ICON" data-name="COMPER ICON" transform="translate(-370.592 -250.507)">
    <path id="Path_7564" data-name="Path 7564" d="M1787.533,257.418h-1.019v-3.031a2.232,2.232,0,0,0-2.23-2.23h-12.636v-1.019h12.636a3.245,3.245,0,0,1,3.249,3.249Z" transform="translate(-1400.336 2.107)" fill="#bfc7d7"/>
    <path id="Path_7565" data-name="Path 7565" d="M1772.066,246.888l-3.245-3.246,3.245-3.246.72.72-2.525,2.525,2.525,2.525Z" transform="translate(-1398.229 10.111)" fill="#bfc7d7"/>
    <path id="Path_7566" data-name="Path 7566" d="M1785.533,285.8H1772.9a3.245,3.245,0,0,1-3.249-3.249V279.52h1.019v3.031a2.232,2.232,0,0,0,2.23,2.23h12.636Z" transform="translate(-1398.846 -19.045)" fill="#bfc7d7"/>
    <path id="Path_7567" data-name="Path 7567" d="M1819.99,295.924l-.72-.72,2.525-2.525-2.525-2.525.72-.72,3.245,3.246Z" transform="translate(-1435.828 -26.434)" fill="#bfc7d7"/>
  </g>
</svg>
