<svg xmlns="http://www.w3.org/2000/svg" width="21.406" height="17.392" viewBox="0 0 21.406 17.392">
  <path id="Twitter" d="M21.406,2.059a8.809,8.809,0,0,1-2.522.692A4.4,4.4,0,0,0,20.814.322a8.776,8.776,0,0,1-2.789,1.065,4.394,4.394,0,0,0-7.6,3,4.44,4.44,0,0,0,.115,1A12.466,12.466,0,0,1,1.491.8,4.4,4.4,0,0,0,2.85,6.665,4.355,4.355,0,0,1,.861,6.116v.056a4.392,4.392,0,0,0,3.522,4.3,4.385,4.385,0,0,1-1.157.154,4.32,4.32,0,0,1-.826-.08A4.4,4.4,0,0,0,6.5,13.6,8.823,8.823,0,0,1,1.048,15.48,8.852,8.852,0,0,1,0,15.419a12.428,12.428,0,0,0,6.732,1.973A12.408,12.408,0,0,0,19.227,4.9c0-.191-.005-.379-.013-.568A8.926,8.926,0,0,0,21.406,2.06Z" fill="#fff"/>
</svg>
