<svg xmlns="http://www.w3.org/2000/svg" width="27.146" height="27.174" viewBox="0 0 27.146 27.174">
  <g id="Group_9" data-name="Group 9" transform="translate(-115.427 -726.413)">
    <path id="Path_4" data-name="Path 4" d="M6635,3352.174l1.9-6.765a13.518,13.518,0,1,1,5.065,4.98Zm7.312-4.26.432.259a11.266,11.266,0,1,0-3.627-3.541l.288.432-1.094,3.886Z" transform="translate(-6519.573 -2598.587)" fill="#fff" fill-rule="evenodd"/>
    <path id="Path_5" data-name="Path 5" d="M6871.809,3575.057l-.892-.058a1.185,1.185,0,0,0-.749.259,4.18,4.18,0,0,0-1.324,2.015,6.059,6.059,0,0,0,1.439,4.807,14.162,14.162,0,0,0,7.686,5.584,3.721,3.721,0,0,0,3.166-.4,2.841,2.841,0,0,0,1.238-1.785l.144-.662a.552.552,0,0,0-.259-.518l-2.965-1.353a.493.493,0,0,0-.576.144l-1.151,1.5a.315.315,0,0,1-.374.115,9.189,9.189,0,0,1-4.951-4.232.362.362,0,0,1,.057-.374l1.094-1.3a.45.45,0,0,0,.087-.46l-1.3-2.994A.4.4,0,0,0,6871.809,3575.057Z" transform="translate(-6746.636 -2841.265)" fill="#fff" fill-rule="evenodd"/>
  </g>
</svg>
