<svg xmlns="http://www.w3.org/2000/svg" width="198" height="66" viewBox="0 0 198 66" fill="none"><mask id="pp104gqlpa" style="mask-type:luminance" maskUnits="userSpaceOnUse" x="0" y="0" width="66" height="66"><path d="M50.257 0H15.743C7.048 0 0 7.048 0 15.743v34.514C0 58.952 7.048 66 15.743 66h34.514C58.952 66 66 58.952 66 50.257V15.743C66 7.048 58.952 0 50.257 0z" fill="#fff"></path></mask><g mask="url(#pp104gqlpa)"><mask id="egqd8s32lb" style="mask-type:luminance" maskUnits="userSpaceOnUse" x="0" y="0" width="66" height="63"><path d="M57.523 0H8.477A8.477 8.477 0 0 0 0 8.477V53.89a8.477 8.477 0 0 0 8.477 8.477h49.046A8.477 8.477 0 0 0 66 53.89V8.477A8.477 8.477 0 0 0 57.523 0z" fill="#fff"></path></mask><g mask="url(#egqd8s32lb)"><path d="M71.482 29.904a2.065 2.065 0 0 0-3.502.277 1.997 1.997 0 0 0 .195 2.139c.87 1.219.554 3.742-.644 5.107a7.002 7.002 0 0 1-5.753 2.522c-3.352-.083-7.572-2.04-12.17-5.494 1.26-1.403 2.142-2.408 2.388-2.737 3.891-5.192 4.948-13.147-1.929-18.347-3.209-2.428-6.613-2.949-10.112-1.548-2.296.92-4.64 2.694-7.11 5.383-2.471-2.69-4.815-4.463-7.11-5.383-3.497-1.4-6.9-.88-10.113 1.548-6.876 5.198-5.82 13.153-1.928 18.347.246.329 1.127 1.332 2.388 2.737-4.597 3.455-8.817 5.41-12.17 5.494a7.018 7.018 0 0 1-5.753-2.522c-1.198-1.365-1.514-3.888-.644-5.107a1.998 1.998 0 0 0 .195-2.139 2.064 2.064 0 0 0-3.502-.277c-1.763 2.43-1.93 7.032.874 10.226a11.035 11.035 0 0 0 8.931 3.914c4.312-.108 9.303-2.31 14.835-6.54 4.09 4.474 9.567 10.343 12.527 13.327a2.04 2.04 0 0 0 1.453.605h.022a2.04 2.04 0 0 0 1.453-.605c2.963-2.984 8.438-8.853 12.528-13.327 5.533 4.228 10.524 6.431 14.835 6.54a11.036 11.036 0 0 0 8.93-3.914c2.816-3.194 2.65-7.794.886-10.226zM47.6 16.64c6.565 4.965 1.695 11.853 1.122 12.621-.182.243-1.038 1.211-2.301 2.609a90.73 90.73 0 0 1-10.914-11.5c5.985-6.729 9.467-5.715 12.093-3.73zM31.832 45.417c-3.013-3.149-6.798-7.23-9.798-10.511A94.86 94.86 0 0 0 32.85 23.59a94.836 94.836 0 0 0 10.815 11.316c-3 3.282-6.785 7.364-9.798 10.51a1.407 1.407 0 0 1-2.035 0zM16.977 29.262c-.577-.769-5.444-7.658 1.122-12.622 2.626-1.984 6.106-2.998 12.09 3.73a90.715 90.715 0 0 1-10.914 11.5c-1.26-1.4-2.115-2.368-2.297-2.608z" fill="#CF0036"></path></g></g><path d="M140.876 33.572a1.252 1.252 0 0 1-.756-.262.892.892 0 0 1-.321-.535 8.322 8.322 0 0 1-.052-1.15v-4.11l2.801 6.295h.243l2.779-6.295v4.468c.012.374-.004.748-.048 1.12a.527.527 0 0 1-.222.354 1.201 1.201 0 0 1-.619.115h-.246v.238h3.354v-.238h-.311a1.162 1.162 0 0 1-.644-.125.552.552 0 0 1-.21-.38 8.727 8.727 0 0 1-.041-1.084V28.54c-.013-.37.005-.74.054-1.108a.45.45 0 0 1 .215-.318c.218-.074.449-.103.679-.085h.258v-.238h-2.153l-2.558 5.808-2.573-5.808h-2.138v.238h.193c.234-.02.47.012.691.093a.474.474 0 0 1 .207.337c.043.359.059.72.048 1.082v3.054c.011.398-.01.796-.062 1.19a.885.885 0 0 1-.344.542 1.28 1.28 0 0 1-.733.246v.238h2.511l-.002-.24zM150.285 28.643v-.286h-2.336v.286a.889.889 0 0 1 .572.144c.18.201.323.433.422.684l1.913 4.1-.484 1.211a1.214 1.214 0 0 1-.251.429 2.037 2.037 0 0 1-.507.285c-.43.195-.646.433-.646.715 0 .244.135.367.404.367a.724.724 0 0 0 .547-.283 4.15 4.15 0 0 0 .571-1.066l2.267-5.473c.112-.32.274-.62.478-.891a.866.866 0 0 1 .609-.22v-.286h-1.79v.285c.46.009.69.117.69.324a4.702 4.702 0 0 1-.255.69l-1.18 2.825-1.397-2.975a2.718 2.718 0 0 1-.24-.609c-.002-.158.203-.244.613-.256zM197.255 19.442a.557.557 0 0 0-.385-.125 4.271 4.271 0 0 0-2.541 1.036 18.524 18.524 0 0 0-2.727 2.666 9.154 9.154 0 0 0-4.704-1.406c-3.089 0-4.555 1.267-4.95 2.348 0 .006-.005.013-.007.019-.068.185-.104.38-.107.578a1.818 1.818 0 0 0 1.086 1.526c1.304.745 3.64 1.003 5.757.573-.362.466-.742.96-1.141 1.484-.138.184-.525.714-1.16 1.589a137.58 137.58 0 0 1-1.845 2.48c-.271.313-.601.658-.999 1.04-.464.45-.97.852-1.512 1.202a2.69 2.69 0 0 1-1.401.511.321.321 0 0 0 0-.131 2.017 2.017 0 0 1-.014-.27c.032-.313.136-.615.303-.883.203-.377.557-.94 1.064-1.685a28.688 28.688 0 0 1 3.051-3.867l-.041-.069-.442-.014a1.842 1.842 0 0 0-1.339.511c-.252.242-.487.5-.704.773.084-.225.131-.463.138-.704 0-.377-.18-.566-.539-.566-.537.026-1.06.18-1.526.448a8.667 8.667 0 0 0-1.746 1.236 11.036 11.036 0 0 0-1.589 1.754c-.307.412-.584.845-.831 1.295-.408.42-.84.827-1.3 1.218-.751.635-1.384.953-1.899.953a1.103 1.103 0 0 1-.027-.401c0-.424.308-1.082.925-1.974l.593-.705.594-.704c.238-.258.384-.588.414-.939 0-.192-.131-.335-.393-.428a2.174 2.174 0 0 0-.711-.138 3.497 3.497 0 0 0-1.105.276c.495-.45 1.031-.852 1.602-1.2.359-.194.63-.33.814-.408.17-.076.354-.116.539-.118a.323.323 0 0 1 .351.203.332.332 0 0 1 .022.143.865.865 0 0 0-.276.04c-.191.07-.36.19-.49.346a.733.733 0 0 0-.214.47c0 .147.078.22.235.22a.857.857 0 0 0 .552-.336c.188-.182.317-.415.373-.67v-.083c-.01-.331-.189-.497-.539-.497a1.775 1.775 0 0 0-.656.117c-.263.11-.519.237-.766.38-.717.464-1.388.996-2.002 1.59h-.014l-.014.026c-.506.47-.98.944-1.422 1.422.608-.773.967-1.224 1.077-1.353l2.734-3.451.578-.732a37.866 37.866 0 0 0 3.342-2.223c.54-.4 1.041-.848 1.498-1.34a15.2 15.2 0 0 0 1.215-1.45c.229-.29.425-.606.585-.94.04-.106.063-.217.069-.33a.432.432 0 0 0-.138-.332.56.56 0 0 0-.386-.124 4.23 4.23 0 0 0-2.534 1.042 19.195 19.195 0 0 0-2.823 2.79c-.731.864-1.65 2.003-2.757 3.419-.278.067-.558.122-.834.166-.06.01-.241.048-.253.124-.011.076.136.058.176.052.251-.04.506-.09.76-.147-.34.433-.695.892-1.069 1.378-.12.165-.557.76-1.312 1.781-.7.949-1.137 1.543-1.312 1.782a21.4 21.4 0 0 0-.283.375 25.8 25.8 0 0 1-2.395 1.966 3.94 3.94 0 0 1-2.126.918c-.037 0-.056-.133-.056-.4.033-.313.14-.613.311-.877.336-.569.702-1.12 1.097-1.65a29.863 29.863 0 0 1 1.761-2.195 41.51 41.51 0 0 1 1.912-2.071c.11-.037.009-.023-.304.041a5.2 5.2 0 0 0-.987.318 3.197 3.197 0 0 0-.932.607c-.453.397-.882.822-1.284 1.27a15.261 15.261 0 0 0-1.229 1.547c-.497.7-.856 1.245-1.077 1.637a2.21 2.21 0 0 0-.332 1.07c0 .617.373.925 1.119.925.598 0 1.362-.343 2.292-1.029.626-.46 1.204-.934 1.74-1.418l-.788 1.066-.925 1.243h1.409l1.27-1.85a22.5 22.5 0 0 1 1.256-1.445c.498-.53 1-1.03 1.506-1.498a7.16 7.16 0 0 1 .773-.276c.201-.07.41-.117.621-.138.184 0 .276.074.277.221a.66.66 0 0 1-.159.352 6.052 6.052 0 0 1-.546.6c-.443.464-.858.952-1.243 1.464a3.74 3.74 0 0 0-.593 1.015 2.53 2.53 0 0 0-.18.863.73.73 0 0 0 .276.621c.243.154.528.227.815.207.553 0 1.234-.35 2.044-1.049.327-.282.632-.567.924-.854a2.697 2.697 0 0 0-.248 1.006.849.849 0 0 0 .256.676.927.927 0 0 0 .626.221 2.525 2.525 0 0 0 1.332-.51 9.749 9.749 0 0 0 1.609-1.397 2.44 2.44 0 0 0-.249.98c0 .617.373.925 1.119.925a2.816 2.816 0 0 0 1.484-.545 10.315 10.315 0 0 0 1.564-1.262l-.314.426-.926 1.243h1.409c.184-.285.589-.87 1.215-1.754l.925-.993a22.017 22.017 0 0 1 1.851-1.878 19.97 19.97 0 0 1 1.926-1.567c.347-.3.762-.51 1.208-.615.147 0 .221.037.221.11a.948.948 0 0 1-.221.386c-.27.34-.57.654-.898.939-.395.377-.741.725-1.035 1.042a7.51 7.51 0 0 0-.815 1.056 15.23 15.23 0 0 0-.946 1.61c-.167.3-.268.63-.297.973a.69.69 0 0 0 .414.594c.319.166.676.247 1.036.234.617 0 1.332-.343 2.147-1.029a16.662 16.662 0 0 0 2.133-2.133h-.221a16.931 16.931 0 0 1-2.05 2.01c-.544.53-1.253.859-2.009.931-.359 0-.539-.133-.539-.4.057-.332.194-.645.401-.911.397-.589.826-1.156 1.284-1.699l.732-.883c.431-.481.833-.988 1.201-1.52.224-.291.337-.653.318-1.02a.523.523 0 0 0-.269-.337c-.18-.08-.376-.12-.573-.118a2.57 2.57 0 0 0-1.07.469c-.647.41-1.261.869-1.837 1.374a20.668 20.668 0 0 0-2.064 2.05c.184-.239.768-.975 1.754-2.21l2.347-2.968c-.009.01.051-.064.18-.22.083-.111.156-.208.221-.29.064-.082.12-.156.166-.22.775-.45 1.618-.995 2.531-1.634.123.114.242.231.359.351.462.571 5.062 6.598-.894 12.828-.355.34-.741.647-1.153.915a12.729 12.729 0 0 1-6.899 1.942c-3.549 0-5.886-.885-8.145-1.74-2.066-.782-4.017-1.52-6.718-1.52-4.894 0-7.01 3.028-7.01 4.574a1.73 1.73 0 0 0 1.404 1.734c.289.077.586.116.885.115 1.738 0 3.509-1.252 4.328-2.648l-.135-.08a5.279 5.279 0 0 1-2.504 2.185c-2.885.833-3.304-.903-3.304-.903-.49-1.487.886-2.924 1.255-3.274 1.079-.856 2.714-1.546 5.08-1.546 2.672 0 4.609.734 6.661 1.51 2.273.86 4.623 1.75 8.201 1.75 4.317 0 8.129-1.925 10.197-5.149a8.407 8.407 0 0 0 .78-8.044 9.95 9.95 0 0 0-2.259-3.091c.227-.161.458-.326.693-.498.542-.4 1.045-.849 1.504-1.342.434-.457.84-.941 1.214-1.45.23-.29.427-.605.587-.939.04-.106.063-.218.069-.331a.417.417 0 0 0-.14-.331zm-18.205 2.796a23.747 23.747 0 0 1 1.843-1.989c.543-.51.962-.766 1.257-.766.239 0 .359.096.359.289a.885.885 0 0 1-.083.331 4.851 4.851 0 0 1-.559.863c-.367.488-.761.954-1.181 1.397-.448.483-.943.92-1.477 1.305-.964.7-1.88 1.32-2.749 1.86a.534.534 0 0 0-.099.039 139.883 139.883 0 0 1 2.689-3.33zm-.76 12.11c-.408.345-.912.56-1.444.614-.074 0-.037-.157.11-.47.212-.429.447-.846.704-1.25.321-.52.689-1.07 1.105-1.65.418-.574.872-1.12 1.36-1.637.41-.441.844-.86 1.3-1.252.194-.192.415-.354.656-.482.249 0 .373.138.373.414a3.139 3.139 0 0 1-.456 1.312l-1.159 1.574c-.27.35-.519.713-.746 1.091a10.675 10.675 0 0 1-1.803 1.735zm10.533-7.88c-1.045.229-2.118.297-3.183.201-.016 0-.03-.003-.045-.006-1.036-.174-2.8-.34-3.169-1.934-.294-1.268.958-2.13 1.287-2.331 1-.448 2.089-.662 3.185-.626a8.989 8.989 0 0 1 4.6 1.368l-.021.025c-.72.851-1.605 1.952-2.655 3.303h.001zm2.191-.855c.52-.659 1.003-1.264 1.45-1.814.198.153.391.313.578.481-.671.464-1.347.909-2.028 1.333zm6.116-5.51a4.855 4.855 0 0 1-.559.864c-.367.487-.761.953-1.181 1.396-.448.483-.943.92-1.477 1.305-.246.177-.492.352-.739.523a10.64 10.64 0 0 0-.613-.511 64.96 64.96 0 0 1 2.29-2.697c.912-.999 1.579-1.498 2.003-1.498.239 0 .359.096.359.289a.868.868 0 0 1-.082.332l-.001-.002z" fill="#DCBA4E"></path><path d="M158.988 29.178a185.55 185.55 0 0 0 4.061-5.754c.452-.666.901-1.335 1.284-1.926a381.398 381.398 0 0 0 2.159-3.189c-.288.649-.614 1.32-.98 2.015-.365.694-.872 1.643-1.521 2.847-1.213 2.204-2.208 4.117-2.986 5.737a37.041 37.041 0 0 0-2.041 5.327 22.225 22.225 0 0 0-.959 5.813v.056l.112.014.027.014v-.006a.053.053 0 0 1 .003-.005l.005-.003h.006v-.028c.648-1.242 1.639-2.88 2.973-4.917a189.213 189.213 0 0 1 4.167-6.098c1.445-2.028 2.616-3.616 3.515-4.764a36.516 36.516 0 0 1 5.029-5.355c1.602-1.349 3.042-2.023 4.32-2.023.342 0 .669.014.979.042a3.61 3.61 0 0 1 1.049.285c.37.145.676.418.861.77l.14-.083a2.483 2.483 0 0 0-1.001-1.035 3.038 3.038 0 0 0-1.062-.375l-.452-.048h-.513c-1.278 0-2.732.713-4.362 2.139a42.58 42.58 0 0 0-5.167 5.57c-.852 1.065-1.952 2.547-3.299 4.445a185.14 185.14 0 0 0-3.969 5.823c-1.297 1.982-2.306 3.635-3.028 4.96.367-1.289.826-2.55 1.375-3.772.574-1.292 1.389-3.007 2.445-5.146a158.667 158.667 0 0 0 2.32-4.806 40.956 40.956 0 0 0 1.611-4.098c.451-1.32.762-2.685.93-4.07l.007-.051-.048-.019-.112-.042-.027.042-.115.172-.01-.008a10.767 10.767 0 0 1-2.581 2.128 9.181 9.181 0 0 1-3.111 1.172 8.116 8.116 0 0 1-3.297-.115 10.287 10.287 0 0 1-3.039-1.312 15.547 15.547 0 0 1-1.233-.867 3.396 3.396 0 0 0-.037-1.092 3.845 3.845 0 0 0-.71-1.572 4.716 4.716 0 0 0-1.262-1.163 4.431 4.431 0 0 0-1.6-.608 6.342 6.342 0 0 0-1.706-.078l.014.118a6.224 6.224 0 0 1 1.668.085c.551.096 1.078.3 1.551.598a4.16 4.16 0 0 1 1.895 2.648c.061.314.075.636.041.954-.451-.344-.923-.66-1.413-.947-.5-.289-1.024-.537-1.564-.742a8.612 8.612 0 0 0-1.686-.428 9.266 9.266 0 0 0-3.453.184 7.637 7.637 0 0 0-3.135 1.488 4.816 4.816 0 0 0-1.141 1.358c-.15.267-.26.554-.327.852a2.095 2.095 0 0 0-.051.474c.001.083.009.166.023.249.017.076.03.154.054.228a3.09 3.09 0 0 0 1.011 1.492c.458.376.98.666 1.541.857a8.382 8.382 0 0 0 3.426.36c.285-.024.57-.056.852-.101.288-.042.572-.107.848-.196a8.976 8.976 0 0 0 1.59-.664 8.174 8.174 0 0 0 2.629-2.19 4.87 4.87 0 0 0 .81-1.526c.025-.084.048-.168.066-.253.368.266.743.526 1.134.758a10.573 10.573 0 0 0 3.147 1.291c1.115.251 2.27.27 3.392.057a9.535 9.535 0 0 0 3.15-1.246 11.154 11.154 0 0 0 2.144-1.685c-.63.94-1.322 1.963-2.075 3.07-.298.436-.653.978-.98 1.46a187.33 187.33 0 0 1-4.267 6.028c-1.478 2.004-2.676 3.572-3.592 4.706-1.054 1.29-3.116 3.587-4.994 5.501l-.014.015c-.075.08-.145.144-.221.223-.076.078-.147.156-.23.24l-.017.018c-.304.313-.622.63-.953.945a8.707 8.707 0 0 0-4.844-1.383c-3.196.182-5.061 1.867-5.018 3.391.042 1.465 1.686 1.986 3.077 1.986 1.855 0 4.127-1.264 6.77-3.76a16.865 16.865 0 0 1 4.217 3.864c.346.439.828.75 1.37.882a24.384 24.384 0 0 0-2.038-2.215 18.99 18.99 0 0 0-3.391-2.682c.456-.437.923-.91 1.402-1.42 1.893-1.932 3.988-4.182 5.063-5.49.868-1.053 1.991-2.517 3.369-4.395zm-5.821-9.955a4.72 4.72 0 0 1-.791 1.472 7.994 7.994 0 0 1-2.582 2.127 8.793 8.793 0 0 1-1.558.642 7.67 7.67 0 0 1-1.661.282 8.175 8.175 0 0 1-3.336-.366 4.7 4.7 0 0 1-1.466-.823 2.863 2.863 0 0 1-.932-1.381 1.524 1.524 0 0 1-.009-.834c.066-.274.178-.534.331-.77a3.15 3.15 0 0 1 .524-.647c.198-.192.411-.367.638-.524a6.078 6.078 0 0 1 1.458-.727c.509-.18 1.03-.326 1.558-.438 1.055-.24 2.14-.322 3.219-.244a8.449 8.449 0 0 1 1.598.312 9.289 9.289 0 0 1 1.534.626c.494.26.968.557 1.418.888l.135.096a4.076 4.076 0 0 1-.078.31zm-10.943 25.012c-.268 0-.537-.017-.803-.054a2.065 2.065 0 0 1-1.76-1.431 2.233 2.233 0 0 1 .436-2.044c.807-.8 2.205-1.428 4.077-1.534a6.134 6.134 0 0 1 1.347.07 9.563 9.563 0 0 1 3.332 1.301c-2.053 1.926-4.514 3.692-6.629 3.692z" fill="#DCBA4E"></path><path d="M172.829 23.88a.965.965 0 0 0-.46.22 2.803 2.803 0 0 0-.506.444 7.702 7.702 0 0 0-.709.876l-.145.204a2.796 2.796 0 0 1-.294.34l.045.075a6.19 6.19 0 0 0 1.261-.483 3.06 3.06 0 0 0 .958-.74.677.677 0 0 0 .196-.468.485.485 0 0 0-.121-.324.318.318 0 0 0-.225-.143zM134.394 24.601a12.27 12.27 0 0 0-2.571-2.186c.409-.434.791-.893 1.145-1.373.229-.29.426-.605.587-.939.039-.106.063-.218.069-.331a.432.432 0 0 0-.139-.331.556.556 0 0 0-.385-.124 4.23 4.23 0 0 0-2.534 1.042c-.4.313-.784.647-1.151 1a13.042 13.042 0 0 0-3.611-.465c-5.182 0-6.859 2.45-6.859 3.637 0 .686.421 1.263 1.218 1.67 1.13.577 3.013.749 4.778.424-.371.474-.763.98-1.176 1.515-.12.166-.557.76-1.312 1.782-.699.948-1.137 1.542-1.311 1.781-.059.074-.189.247-.382.507-.271.312-.601.657-.999 1.04-.464.448-.97.85-1.512 1.201a2.69 2.69 0 0 1-1.401.511.29.29 0 0 0 0-.13 1.59 1.59 0 0 1 .289-1.154c.202-.377.556-.94 1.063-1.685a28.836 28.836 0 0 1 3.051-3.866l-.041-.07-.442-.014a1.839 1.839 0 0 0-1.339.511c-.252.242-.487.5-.704.774.084-.226.131-.464.138-.705 0-.377-.18-.566-.539-.566-.537.026-1.06.18-1.525.449a8.674 8.674 0 0 0-1.747 1.235c-.462.413-.889.864-1.275 1.349a12.05 12.05 0 0 0-.63-2.245 93.059 93.059 0 0 1 4.818-6.766 28.556 28.556 0 0 1 3.743-4.156l-.953-.083c-1.464-.046-3.871 1.768-7.223 5.442-.295.303-1.004 1.164-2.127 2.582l-.635-.707-.317-.318a141.675 141.675 0 0 1 3.866-5.019 21.614 21.614 0 0 1 2.43-2.7l-.068-.138c-.29.044-.576.109-.857.193l-.151.041a6.466 6.466 0 0 0-1.691.905c-.593.44-1.15.927-1.664 1.457-.562.57-1.376 1.436-2.444 2.596-.396.405-.787.838-1.174 1.3-.461-.294-.94-.56-1.434-.797-2.59-1.394-5.842-2.052-9.704-1.926-1.081.048-2.145.176-3.197.327-3.235.467-12.746 3.6-13.046-2.914l-.163-.063s-.748 5.791 7.696 4.323c.78-.148 1.64-.324 2.59-.53a90.741 90.741 0 0 1 3.472-.687 21.457 21.457 0 0 1 2.657-.29c1.83-.074 3.661.07 5.457.431 1.45.292 2.85.797 4.153 1.497.481.232.947.494 1.397.782-.35.396-.737.866-1.161 1.409-.423.543-.842 1.09-1.256 1.643l-.856 1.119c-2.617 3.349-5.077 5.83-7.382 7.441-2.304 1.612-4.557 2.417-6.759 2.416a9.522 9.522 0 0 1-3.5-.635 5.727 5.727 0 0 1-2.57-1.993 5.447 5.447 0 0 1-1.055-3.337c-.037-1.095.433-2.193 1.409-3.293a11.215 11.215 0 0 1 3.749-2.707 10.685 10.685 0 0 1 4.508-1.056c.294 0 .58.014.856.041a9.676 9.676 0 0 1 2.513.615 4.9 4.9 0 0 1 1.885 1.277 2.81 2.81 0 0 1 .725 1.93v.07a10.448 10.448 0 0 0-3.797-.551 13.205 13.205 0 0 0-4.025.559 7.162 7.162 0 0 0-2.686 1.422 2.422 2.422 0 0 0-.939 1.733 1.554 1.554 0 0 0 .656 1.243c.54.393 1.169.644 1.83.732.465.078.937.115 1.409.11a10.084 10.084 0 0 0 3.293-.566 8.677 8.677 0 0 0 2.83-1.567 4.287 4.287 0 0 0 1.485-2.244c.055-.303.087-.51.096-.621a2.53 2.53 0 0 1 1.312 1.229.95.95 0 0 1-.097.144.702.702 0 0 0-.096.16.93.93 0 0 0-.083.385c0 .136.023.271.069.4.031.104.088.2.166.276.043.037.095.061.151.069a.263.263 0 0 0 .166-.096.678.678 0 0 0 .124-.539v-.055a1.595 1.595 0 0 0-.138-.538 2.805 2.805 0 0 0-1.56-1.602v-.153a2.948 2.948 0 0 0-.753-2.022 5.103 5.103 0 0 0-1.955-1.332 9.74 9.74 0 0 0-2.582-.635c-.488-.046-.93-.069-1.326-.069-1.743-.04-3.469.352-5.025 1.14a8.667 8.667 0 0 0-3.274 2.83 5.593 5.593 0 0 0-1.064 3.28c.001 1.233.388 2.435 1.105 3.438a6.127 6.127 0 0 0 2.665 2.037 9.344 9.344 0 0 0 3.521.656c2.228 0 4.506-.81 6.835-2.43 2.329-1.62 4.801-4.115 7.416-7.485a176.46 176.46 0 0 1 3.328-4.183l.621.455c-1.722 2.163-3.218 4.168-4.488 6.013-1.27 1.846-1.905 2.98-1.905 3.404 0 .736.285 1.165.856 1.284.05.01.101.016.152.014a.705.705 0 0 0 .4-.11l.208-.138a21.46 21.46 0 0 0 1.56-1.844c.92-1.145 2.19-2.75 3.811-4.812l.869-1.104.578-.718c.325.412.62.846.884 1.3a67.984 67.984 0 0 0-4.136 6.717c-.532.986-1.01 2-1.433 3.038a18.576 18.576 0 0 0-1.444-.057c-5.717 0-8.077 2.671-8.546 4.367-.095.28-.12.58-.072.873a1.66 1.66 0 0 0 1.367 1.486c.204.047.411.07.62.07 1.592 0 3.163-1.323 3.874-2.793l-.141-.069a4.852 4.852 0 0 1-2.658 2.492c-2.15.463-2.53-1.07-2.53-1.07a3.082 3.082 0 0 1 .733-2.697c1.216-1.29 3.512-2.504 7.352-2.504.479 0 .94.02 1.387.053a15.253 15.253 0 0 0-.724 2.327 10.28 10.28 0 0 0-.235 2.112c-.04.675.11 1.347.433 1.94a1.418 1.418 0 0 0 1.277.684c.7 0 1.486-.369 2.36-1.105a10.776 10.776 0 0 0 2.423-3.162c.231-.432.439-.877.623-1.331.408.15.812.302 1.213.454 2.464.936 5.012 1.903 8.325 1.903 6.822 0 11.602-3.954 13.313-7.872 1.391-3.172.924-6.35-1.274-8.721zm-36.291 6.397a12.416 12.416 0 0 1-3.314 1.864 9.444 9.444 0 0 1-3.323.732 3.6 3.6 0 0 1-.69-.055 4.07 4.07 0 0 1-1.754-.684 1.392 1.392 0 0 1-.622-1.126 2.304 2.304 0 0 1 .914-1.643 6.99 6.99 0 0 1 2.617-1.367 13.156 13.156 0 0 1 3.956-.538c1.285-.061 2.57.127 3.783.552-.101.755-.624 1.51-1.567 2.265zm10.763-7.429c.449-.534.827-.962 1.132-1.284.948-1.031 1.685-1.818 2.209-2.36.482-.503.994-.976 1.533-1.415a6.797 6.797 0 0 1 1.493-.932c-.879.8-1.709 1.652-2.485 2.552a92.418 92.418 0 0 0-3.259 3.894 8.644 8.644 0 0 0-.623-.455zm1.837 3.176-1.686 2.14a1494.232 1494.232 0 0 1-2.996 3.784c-.473.634-.98 1.243-1.519 1.823a.208.208 0 0 1-.124.055c-.048 0-.069-.037-.069-.11.039-.268.123-.527.249-.766.167-.379.361-.746.577-1.098a73.012 73.012 0 0 1 2.216-3.383 150.528 150.528 0 0 1 2.989-4.184l.317.317c.203.203.41.433.622.69l-.576.732zm21.125-6.497c.543-.51.962-.766 1.257-.766.239 0 .359.096.359.29a.866.866 0 0 1-.083.33 4.796 4.796 0 0 1-.559.863c-.355.47-.736.92-1.14 1.349a9.507 9.507 0 0 0-1.225-.606c.506-.576.97-1.063 1.391-1.46zm-1.844 1.99c.116-.14.229-.27.341-.4.422.169.831.368 1.223.597a9.872 9.872 0 0 1-1.405 1.231 45.879 45.879 0 0 1-2.886 1.947 146.212 146.212 0 0 1 2.727-3.376zm-7.438 4.373c-2.037-.236-2.649-.703-2.938-1.716a2.435 2.435 0 0 1 .771-2.404c1.027-.785 2.745-1.44 5.421-1.44a12.94 12.94 0 0 1 3.478.434 23.862 23.862 0 0 0-1.54 1.663c-.707.836-1.591 1.932-2.654 3.287-.834.17-1.687.23-2.537.176h-.001zm-8.576 6.51c.304-.485.646-.994 1.027-1.527.418-.574.872-1.121 1.36-1.638a16.4 16.4 0 0 1 1.3-1.252 2.8 2.8 0 0 1 .656-.481c.249 0 .373.138.373.414a3.139 3.139 0 0 1-.456 1.312l-1.159 1.574c-.27.349-.518.713-.746 1.09a10.63 10.63 0 0 1-1.802 1.734 4.52 4.52 0 0 1-.621.385c.05-.46.076-.922.076-1.385-.003-.078-.007-.153-.008-.227zm-.163.263c-.004.48-.038.96-.1 1.436a1.672 1.672 0 0 1-.63.144c-.073 0-.037-.157.11-.47.188-.38.395-.752.62-1.111v.001zm-2.29-7.368c1.133-1.426 1.828-2.287 2.086-2.582 3.129-3.433 5.426-5.242 6.89-5.426-.792.46-1.948 1.565-3.468 3.314a71.375 71.375 0 0 0-4.625 5.992 11.377 11.377 0 0 0-.883-1.3v.002zm.53 14.07a10.642 10.642 0 0 1-2.347 3.094c-.843.718-1.6 1.077-2.272 1.077a1.3 1.3 0 0 1-.317-.027.83.83 0 0 1-.53-.277.883.883 0 0 1-.159-.552c.004-.221.034-.441.09-.656.06-.244.159-.61.297-1.097l.289-.981c.3-1.062.682-2.1 1.141-3.105 1.508.265 2.987.672 4.418 1.216-.179.446-.382.882-.608 1.306l-.002.003zm.669-1.454a24.41 24.41 0 0 0-4.41-1.218c.286-.634.608-1.3.973-2.001a75.694 75.694 0 0 1 3.756-6.386c.278.723.482 1.473.608 2.237-.06.078-.122.154-.18.234-.875 1.197-1.312 2.127-1.312 2.79a.85.85 0 0 0 .256.676.927.927 0 0 0 .626.221c.219-.005.435-.052.637-.137-.018.12-.035.241-.057.358a17.16 17.16 0 0 1-.896 3.223l-.001.003zm22.868-6.543c-1.396 5.433-5.995 7.323-8.655 8.305a16.18 16.18 0 0 1-4.567.642c-3.284 0-5.706-.92-8.269-1.893-.4-.151-.803-.303-1.21-.453.416-1.067.726-2.173.926-3.3.024-.145.044-.29.063-.434.172-.084.338-.18.496-.286a9.749 9.749 0 0 0 1.609-1.397 2.44 2.44 0 0 0-.249.98c0 .617.373.926 1.119.926a2.814 2.814 0 0 0 1.484-.546 10.258 10.258 0 0 0 1.563-1.262l-.314.427-.925 1.243h1.409l1.27-1.85c.341-.433.759-.915 1.257-1.445.497-.53.999-1.03 1.505-1.498.252-.107.511-.199.773-.276.201-.071.41-.117.622-.138.184 0 .276.073.276.22a.66.66 0 0 1-.159.353 6.177 6.177 0 0 1-.546.6c-.442.463-.857.952-1.242 1.464a3.716 3.716 0 0 0-.594 1.015 2.58 2.58 0 0 0-.18.863.73.73 0 0 0 .276.62c.243.155.528.227.815.208.552 0 1.234-.35 2.044-1.05.375-.324.725-.65 1.054-.98a2.538 2.538 0 0 0-.116.718 1.221 1.221 0 0 0 1.339 1.312 3.962 3.962 0 0 0 2.078-.842 12.248 12.248 0 0 0 2.465-2.32h-.207a10.493 10.493 0 0 1-2.327 2.16 3.93 3.93 0 0 1-2.009.78c-.257 0-.385-.146-.385-.441.03-.37.139-.73.317-1.057a9.237 9.237 0 0 1 .912-1.463l.385-.525a7.785 7.785 0 0 0 1.643-.732 9.252 9.252 0 0 0 1.422-1.001c.31-.236.561-.541.732-.89.04-.107.063-.219.069-.332a.416.416 0 0 0-.138-.331.557.557 0 0 0-.385-.124 4.28 4.28 0 0 0-2.437 1.021 13.199 13.199 0 0 0-2.672 2.776 4.383 4.383 0 0 0-.53.88c-.43.447-.883.872-1.356 1.274-.751.635-1.384.952-1.899.952a1.103 1.103 0 0 1-.027-.4c0-.424.308-1.082.925-1.975l.593-.704.594-.704c.238-.259.384-.589.414-.939 0-.193-.131-.335-.393-.428a2.177 2.177 0 0 0-.711-.138 3.5 3.5 0 0 0-1.105.276c.495-.45 1.031-.852 1.602-1.201.358-.193.63-.329.814-.408.17-.075.353-.115.539-.117a.326.326 0 0 1 .372.345.87.87 0 0 0-.276.041c-.191.07-.361.189-.49.346a.743.743 0 0 0-.214.47c0 .147.078.22.234.22a.856.856 0 0 0 .553-.337c.188-.181.317-.414.373-.67v-.082c-.01-.332-.189-.497-.539-.497a1.775 1.775 0 0 0-.656.117c-.263.11-.519.237-.766.38-.717.463-1.388.995-2.002 1.589h-.014l-.014.027c-.506.47-.98.944-1.422 1.422.608-.773.967-1.224 1.077-1.353l2.734-3.452.578-.732a38.02 38.02 0 0 0 3.341-2.223 10.78 10.78 0 0 0 1.459-1.3l.139.086c1.126.808 5.11 4.116 3.736 9.468zm-5.717-.856a17.524 17.524 0 0 1 1.941-2.19c.593-.546.996-.82 1.208-.82.239 0 .359.096.359.288a.865.865 0 0 1-.083.332 2.378 2.378 0 0 1-.635.738 9.307 9.307 0 0 1-1.277.925 7.64 7.64 0 0 1-1.513.727z" fill="#DCBA4E"></path><path d="M117.756 49.639h-5.916v.099h5.916v-.1zM176.387 49.639h-5.916v.099h5.916v-.1zM120.597 50.593a.277.277 0 0 1-.168-.058.27.27 0 0 1-.103-.154 1.928 1.928 0 0 1-.024-.371v-1.198h.598V48.7h-.598v-.622h-.077a.806.806 0 0 1-.201.455.504.504 0 0 1-.356.167v.111h.289v1.124c-.005.162.006.325.033.484a.43.43 0 0 0 .164.241.485.485 0 0 0 .307.103.606.606 0 0 0 .296-.08.52.52 0 0 0 .222-.241l-.078-.049a.36.36 0 0 1-.304.2zM124.629 50.428a3.746 3.746 0 0 1-.013-.423v-.547a1.698 1.698 0 0 0-.048-.482.47.47 0 0 0-.21-.25.744.744 0 0 0-.405-.102.793.793 0 0 0-.396.101 1.01 1.01 0 0 0-.325.305v-1.673h-.052a1.66 1.66 0 0 1-.626.102v.111c.144 0 .235.027.273.08.05.12.07.25.057.38v1.974c0 .222-.003.355-.009.401a.19.19 0 0 1-.061.12.348.348 0 0 1-.226.047h-.051v.111h1.007v-.11a.465.465 0 0 1-.23-.04.156.156 0 0 1-.074-.118 4.417 4.417 0 0 1-.011-.412v-.794a.927.927 0 0 1 .264-.33.56.56 0 0 1 .337-.11.45.45 0 0 1 .27.077.337.337 0 0 1 .137.196c.023.12.033.243.029.365v.596c0 .22-.003.352-.008.398a.198.198 0 0 1-.061.12.35.35 0 0 1-.229.051h-.048v.111h1.024v-.11a.572.572 0 0 1-.241-.036.137.137 0 0 1-.049-.046.16.16 0 0 1-.025-.063zM128.479 49.371a.812.812 0 0 0-.501-.698.77.77 0 0 0-.328-.053.885.885 0 0 0-.69.312 1.133 1.133 0 0 0-.276.78 1.011 1.011 0 0 0 .512.924.963.963 0 0 0 .976-.012.675.675 0 0 0 .307-.386h-.116a.637.637 0 0 1-.626.394.537.537 0 0 1-.487-.262 1.507 1.507 0 0 1-.164-.785c0-.047.004-.118.01-.213h1.383zm-.848-.644a.414.414 0 0 1 .433.448.66.66 0 0 1-.007.1h-.949c.055-.365.23-.547.523-.548zM133.473 49.474a1.347 1.347 0 0 1-.37-.221.294.294 0 0 1-.099-.225.294.294 0 0 1 .198-.277.314.314 0 0 1 .126-.02.426.426 0 0 1 .328.158.837.837 0 0 1 .188.379h.09v-.613h-.09a.656.656 0 0 1-.096.177.528.528 0 0 0-.429-.21.476.476 0 0 0-.394.178.591.591 0 0 0-.141.374.492.492 0 0 0 .131.346c.125.121.271.22.431.29.14.06.269.141.385.24a.355.355 0 0 1 .097.254.385.385 0 0 1-.091.245.337.337 0 0 1-.275.111c-.282 0-.479-.188-.588-.564h-.097v.651h.097a.545.545 0 0 1 .106-.208.657.657 0 0 0 .718.187.559.559 0 0 0 .369-.545.752.752 0 0 0-.092-.344 1.052 1.052 0 0 0-.502-.363zM137.84 50.408a4.595 4.595 0 0 1-.01-.407v-1.3h-.692v.111h.05c.08-.01.16.01.227.052a.192.192 0 0 1 .061.123c.005.047.008.178.008.394v.448a.984.984 0 0 1-.062.391.677.677 0 0 1-.231.26.601.601 0 0 1-.356.121.392.392 0 0 1-.23-.069.294.294 0 0 1-.124-.16 1.329 1.329 0 0 1-.024-.295V48.7h-.674v.111a.529.529 0 0 1 .236.037.156.156 0 0 1 .052.047c.013.02.021.042.024.065.012.14.016.28.012.42v.674a1.04 1.04 0 0 0 .057.395.492.492 0 0 0 .21.222.673.673 0 0 0 .351.09.792.792 0 0 0 .42-.116c.137-.088.252-.207.337-.346-.009.158.019.315.082.46h.029c.173-.058.355-.085.537-.078v-.111a.424.424 0 0 1-.221-.04.166.166 0 0 1-.069-.122zM141.911 50.423a4.182 4.182 0 0 1-.012-.42v-.619a1.561 1.561 0 0 0-.043-.42.452.452 0 0 0-.193-.243.697.697 0 0 0-.389-.1.837.837 0 0 0-.399.102 1.256 1.256 0 0 0-.366.308 1.293 1.293 0 0 0-.063-.41h-.069a3.1 3.1 0 0 1-.545.111v.112a.521.521 0 0 1 .241.037c.02.012.038.028.051.047a.14.14 0 0 1 .026.065c.013.14.017.28.014.42v.59a3.3 3.3 0 0 1-.016.434.153.153 0 0 1-.081.103.556.556 0 0 1-.233.033v.112h1.002v-.112a.52.52 0 0 1-.241-.037.153.153 0 0 1-.077-.113 3.663 3.663 0 0 1-.014-.419v-.808a1.13 1.13 0 0 1 .304-.316.61.61 0 0 1 .337-.106.407.407 0 0 1 .256.078.314.314 0 0 1 .123.178c.019.11.027.224.023.337v.639c0 .22-.002.354-.007.4a.188.188 0 0 1-.061.118.348.348 0 0 1-.227.05h-.048v.112h1.014v-.111a.514.514 0 0 1-.236-.038.158.158 0 0 1-.049-.049.168.168 0 0 1-.022-.065zM145.983 50.423a4.182 4.182 0 0 1-.012-.42v-.619a1.523 1.523 0 0 0-.044-.42.446.446 0 0 0-.192-.243.698.698 0 0 0-.389-.1.838.838 0 0 0-.399.102c-.14.079-.264.183-.366.308a1.293 1.293 0 0 0-.063-.41h-.065a3.1 3.1 0 0 1-.545.111v.112a.521.521 0 0 1 .241.037c.02.012.038.028.052.047.013.02.022.041.026.065.012.14.017.28.013.42v.59c.005.145-.001.29-.016.434a.154.154 0 0 1-.081.103.556.556 0 0 1-.233.033v.112h1.002v-.112a.522.522 0 0 1-.241-.037.156.156 0 0 1-.077-.113 3.663 3.663 0 0 1-.014-.419v-.808c.08-.124.183-.232.304-.316a.61.61 0 0 1 .337-.106.408.408 0 0 1 .256.078c.06.043.104.106.123.178.019.11.027.224.023.337v.639c0 .22-.002.354-.007.4a.188.188 0 0 1-.061.118.35.35 0 0 1-.227.05h-.048v.112h1.014v-.111a.51.51 0 0 1-.236-.038.148.148 0 0 1-.051-.048.157.157 0 0 1-.024-.066zM149.823 50.558a.12.12 0 0 1-.126-.08 1.365 1.365 0 0 1-.029-.36v-.802a.989.989 0 0 0-.054-.378.504.504 0 0 0-.224-.22 1.24 1.24 0 0 0-1.087.062.428.428 0 0 0-.196.296c0 .094.049.14.148.14.11 0 .177-.081.203-.246.026-.165.161-.245.405-.241a.527.527 0 0 1 .292.073.301.301 0 0 1 .138.164c.021.098.03.198.027.298v.096l-.376.153a2.99 2.99 0 0 0-.671.363.543.543 0 0 0-.244.434.389.389 0 0 0 .036.17c.025.054.062.101.109.137a.537.537 0 0 0 .346.116.912.912 0 0 0 .358-.087c.155-.071.303-.158.441-.259.011.098.055.19.125.26a.37.37 0 0 0 .26.086c.257 0 .392-.138.406-.414h-.089c-.025.16-.091.239-.198.239zm-.504-.3a1.918 1.918 0 0 1-.337.225.605.605 0 0 1-.264.075.263.263 0 0 1-.208-.093.365.365 0 0 1-.08-.246c0-.257.209-.47.626-.64l.264-.105-.001.784zM153.81 50.428a3.746 3.746 0 0 1-.013-.423v-.547a1.735 1.735 0 0 0-.049-.482.469.469 0 0 0-.209-.25.746.746 0 0 0-.405-.102.79.79 0 0 0-.396.101c-.13.077-.241.181-.326.305v-1.673h-.051c-.2.074-.413.109-.626.102v.111c.144 0 .234.027.273.08.05.12.069.25.057.38v1.974c0 .222-.003.355-.009.401a.193.193 0 0 1-.06.12.353.353 0 0 1-.227.047h-.05v.111h1.009v-.11a.467.467 0 0 1-.23-.04.157.157 0 0 1-.074-.118 4.417 4.417 0 0 1-.011-.412v-.794a.939.939 0 0 1 .264-.33.56.56 0 0 1 .337-.11.45.45 0 0 1 .27.077.337.337 0 0 1 .137.196c.023.12.033.243.029.365v.596c0 .22-.003.352-.008.398a.198.198 0 0 1-.061.12.35.35 0 0 1-.229.051h-.048v.111h1.024v-.11a.572.572 0 0 1-.241-.036.148.148 0 0 1-.077-.109zM160.668 48.813c.163.007.244.05.244.128a1.018 1.018 0 0 1-.07.216l-.436 1.126-.595-1.581h-.097l-.615 1.58-.402-1.062a1.286 1.286 0 0 1-.096-.283.094.094 0 0 1 .055-.097.53.53 0 0 1 .208-.028v-.11h-.905v.11a.283.283 0 0 1 .203.054c.067.1.119.208.155.322l.606 1.574h.106l.603-1.574.591 1.574h.109l.617-1.574.053-.14a.386.386 0 0 1 .123-.19.348.348 0 0 1 .182-.046v-.11h-.644l.005.111zM164.733 50.558a.12.12 0 0 1-.125-.08 1.324 1.324 0 0 1-.029-.36v-.802a.99.99 0 0 0-.055-.378.499.499 0 0 0-.224-.22 1.236 1.236 0 0 0-1.086.062.417.417 0 0 0-.196.296c0 .094.049.14.147.14.11 0 .178-.081.204-.246.025-.165.16-.245.404-.241a.53.53 0 0 1 .293.073.31.31 0 0 1 .138.164c.021.098.03.198.026.298v.096l-.375.153a3 3 0 0 0-.674.363.54.54 0 0 0-.243.434.375.375 0 0 0 .144.307.537.537 0 0 0 .346.116.912.912 0 0 0 .358-.087c.155-.071.303-.158.441-.259.011.098.055.19.125.26a.373.373 0 0 0 .261.086c.256 0 .392-.138.406-.414h-.089c-.025.16-.09.239-.197.239zm-.503-.3a1.913 1.913 0 0 1-.337.225.61.61 0 0 1-.264.075.262.262 0 0 1-.208-.093.365.365 0 0 1-.08-.246c0-.257.208-.47.626-.64l.264-.105-.001.784zM168.042 48.812c.179.004.269.046.269.126a1.837 1.837 0 0 1-.099.269l-.46 1.102-.545-1.16a1.02 1.02 0 0 1-.096-.237c0-.062.08-.095.241-.1v-.11h-.911v.11a.344.344 0 0 1 .223.056.878.878 0 0 1 .165.267l.746 1.597-.189.472a.474.474 0 0 1-.097.167.784.784 0 0 1-.197.112c-.168.075-.252.168-.252.278 0 .096.053.144.158.144a.278.278 0 0 0 .212-.11c.095-.127.17-.266.223-.415l.884-2.133c.044-.124.107-.242.186-.347a.34.34 0 0 1 .238-.086v-.11h-.697l-.002.108z" fill="#CF0036"></path></svg>