<svg id="undraw_flutter_dev_wvqj" xmlns="http://www.w3.org/2000/svg" xmlns:xlink="http://www.w3.org/1999/xlink" width="303.727" height="257.993" viewBox="0 0 303.727 257.993">
  <defs>
    <linearGradient id="linear-gradient" x1="0.17" y1="1.143" x2="0.669" y2="0.457" gradientUnits="objectBoundingBox">
      <stop offset="0" stop-color="#1a237e" stop-opacity="0.4"/>
      <stop offset="1" stop-color="#1a237e" stop-opacity="0"/>
    </linearGradient>
  </defs>
  <path id="Path_501" data-name="Path 501" d="M218.3,617.426c15.317,9.825,34.451,9.326,52.849,7.024,2.569-.321,5.118-.673,7.642-1.04.015,0,.035,0,.051-.009.121-.018.243-.036.359-.05l1.558-.232-.11.24-.345.746c.125-.25.25-.5.375-.746.037-.075.078-.15.115-.225,4.335-8.584,8.614-17.471,9.31-27.043.718-9.935-3.4-20.918-12.348-25.3a17.558,17.558,0,0,0-3.677-1.312c-.528-.13-1.061-.229-1.6-.314a18.811,18.811,0,0,0-20.526,25.6c-7.771-7.152-7.059-19.475-5.072-29.848s4.457-21.93-1.215-30.844c-3.154-4.962-8.385-7.864-14.132-8.836-.176-.028-.352-.056-.529-.079a27.453,27.453,0,0,0-19.509,4.514c-10.488,7.428-15.363,20.7-16.487,33.506C193.2,583.783,200.89,606.255,218.3,617.426Z" transform="translate(-193.178 -368.107)" fill="#f2f2f2"/>
  <path id="Path_502" data-name="Path 502" d="M264.79,584.842a46.669,46.669,0,0,0,3.925,12.958,40.522,40.522,0,0,0,6.837,9.923,51.92,51.92,0,0,0,20.69,13.284,74.728,74.728,0,0,0,18.407,3.9c2.569-.321,5.118-.673,7.642-1.04.015,0,.035,0,.051-.009.121-.018.243-.036.359-.05l1.558-.232-.11.241-.345.746c.125-.25.25-.5.375-.746.037-.075.078-.15.115-.225a40.942,40.942,0,0,1-6.715-53.654c-.528-.13-1.061-.229-1.6-.314a43.2,43.2,0,0,0-3.582,6.729,42.323,42.323,0,0,0-2.226,26.488,43.27,43.27,0,0,0,12.111,20.96c-.495-.008-.994-.021-1.483-.039-9.261-.283-18.568-1.768-27.148-5.376a48.3,48.3,0,0,1-18.869-13.85c-5.441-6.71-8.126-14.99-8.971-23.508a101.1,101.1,0,0,1,1.39-27.486,114.887,114.887,0,0,1,8.221-26.779.826.826,0,0,0-.386-1.071.7.7,0,0,0-.528-.079.612.612,0,0,0-.384.367c-.472,1.057-.933,2.114-1.375,3.182a116.191,116.191,0,0,0-7.611,27.732C263.8,566.078,263.331,575.639,264.79,584.842Z" transform="translate(-236.674 -368.559)" fill="#fff"/>
  <path id="Path_22" data-name="Path 22" d="M539.729,163.455h-1.417V124.631A22.471,22.471,0,0,0,515.84,102.16H433.584a22.471,22.471,0,0,0-22.471,22.471v213A22.471,22.471,0,0,0,433.584,360.1H515.84a22.471,22.471,0,0,0,22.471-22.471V191.091h1.417Z" transform="translate(-329.298 -102.16)" fill="#3f3d56"/>
  <path id="Path_23" data-name="Path 23" d="M527.266,117.918H516.53a7.973,7.973,0,0,1-7.383,10.984H462.023a7.973,7.973,0,0,1-7.382-10.984H444.613A16.781,16.781,0,0,0,427.832,134.7V347.386a16.781,16.781,0,0,0,16.781,16.781h82.653a16.781,16.781,0,0,0,16.781-16.781h0V134.7a16.781,16.781,0,0,0-16.781-16.781Z" transform="translate(-339.817 -112.074)" fill="#fff"/>
  <path id="Path_503" data-name="Path 503" d="M936.273,722.661c-5.961,4.294-13.686,4.51-21.153,3.982-1.043-.074-2.078-.16-3.1-.253l-.021,0c-.049,0-.1-.009-.146-.012l-.633-.059.049.095.156.293-.168-.292c-.016-.029-.035-.059-.051-.088-1.934-3.366-3.853-6.856-4.342-10.7-.506-3.99.916-8.507,4.427-10.468a7.094,7.094,0,0,1,1.454-.609c.21-.064.423-.116.638-.161a7.595,7.595,0,0,1,8.832,9.873c2.977-3.053,2.422-8,1.395-12.143s-2.274-8.744-.182-12.461a8.216,8.216,0,0,1,5.5-3.87c.07-.015.141-.031.211-.044a11.083,11.083,0,0,1,7.963,1.4c4.39,2.766,6.644,8.011,7.376,13.149C945.659,708.551,943.05,717.778,936.273,722.661Z" transform="translate(-641.136 -469.18)" fill="#f2f2f2"/>
  <path id="Path_504" data-name="Path 504" d="M941.883,709.773a18.835,18.835,0,0,1-1.3,5.31,16.357,16.357,0,0,1-2.54,4.149,20.963,20.963,0,0,1-8.052,5.806,30.17,30.17,0,0,1-7.336,1.971c-1.043-.074-2.078-.16-3.1-.253l-.021,0c-.049,0-.1-.009-.146-.012l-.633-.06.049.095.156.293-.168-.292c-.017-.029-.035-.059-.051-.088a16.529,16.529,0,0,0,1.539-21.777c.21-.064.423-.116.638-.161a17.433,17.433,0,0,1,1.591,2.635,17.085,17.085,0,0,1,1.474,10.63,17.467,17.467,0,0,1-4.426,8.714c.2-.014.4-.03.6-.048a30.632,30.632,0,0,0,10.828-2.758,19.5,19.5,0,0,0,7.305-5.994,17.624,17.624,0,0,0,3.1-9.672,40.818,40.818,0,0,0-1.159-11.051,46.39,46.39,0,0,0-3.9-10.617.334.334,0,0,1,.132-.44.284.284,0,0,1,.211-.043.247.247,0,0,1,.163.14c.213.416.422.832.623,1.253a46.9,46.9,0,0,1,3.672,11.014A37.76,37.76,0,0,1,941.883,709.773Z" transform="translate(-648.671 -469.546)" fill="#fff"/>
  <path id="Path_505" data-name="Path 505" d="M493.856,796.509H190.871a.371.371,0,0,1,0-.742H493.856a.371.371,0,1,1,0,.742Z" transform="translate(-190.5 -538.543)" fill="#3f3d56"/>
  <path id="Path_506" data-name="Path 506" d="M628.23,654.545h-4.546l-2.163-17.537h6.711Z" transform="translate(-391.029 -400.773)" fill="#ffb8b8"/>
  <path id="Path_507" data-name="Path 507" d="M609.231,680.793H618v5.521H603.71A5.521,5.521,0,0,1,609.231,680.793Z" transform="translate(-379.824 -428.321)" fill="#2f2e41"/>
  <path id="Path_508" data-name="Path 508" d="M674.23,654.545h-4.546l-2.163-17.537h6.711Z" transform="translate(-419.97 -400.773)" fill="#ffb8b8"/>
  <path id="Path_509" data-name="Path 509" d="M655.23,680.793H664v5.521H649.71A5.521,5.521,0,0,1,655.23,680.793Z" transform="translate(-408.764 -428.321)" fill="#2f2e41"/>
  <path id="Path_510" data-name="Path 510" d="M868.24,563.262a3.984,3.984,0,0,1-.765-6.061l-2.994-42.484,8.623.836.237,41.6a4.006,4.006,0,0,1-5.1,6.1Z" transform="translate(-614.535 -361.72)" fill="#ffb8b8"/>
  <path id="Path_511" data-name="Path 511" d="M817.754,670.655l-5.005-.239a1.668,1.668,0,0,1-1.589-1.655l-.349-50.642a1.669,1.669,0,0,1,1.909-1.663l20.024,2.907A1.659,1.659,0,0,1,834.171,621l2.575,46.925a1.669,1.669,0,0,1-1.669,1.681h-5.4a1.661,1.661,0,0,1-1.648-1.409L824.7,647.035a1.3,1.3,0,0,0-2.571.047l-2.643,22.1a1.675,1.675,0,0,1-1.657,1.471Z" transform="translate(-580.768 -425.718)" fill="#2f2e41"/>
  <path id="Path_512" data-name="Path 512" d="M820.345,541.4a25.192,25.192,0,0,0-9.523-3.262,1.639,1.639,0,0,1-1.132-.62,1.661,1.661,0,0,1-.345-1.261l4.8-35.621a12.319,12.319,0,0,1,7.181-9.626,11.981,11.981,0,0,1,11.643.913q.247.164.484.335a12.3,12.3,0,0,1,4.686,12.821c-2.942,12.036-3.953,31.768-4.125,35.6a1.656,1.656,0,0,1-1.082,1.485,16.721,16.721,0,0,1-5.646,1.005A14.141,14.141,0,0,1,820.345,541.4Z" transform="translate(-579.835 -346.117)" fill="#6c63ff"/>
  <path id="Path_513" data-name="Path 513" d="M867.492,523.414a1.661,1.661,0,0,1-.689-1.261l-.632-11.45a4.6,4.6,0,0,1,9.029-1.456l2.776,10.237a1.671,1.671,0,0,1-1.174,2.047l-7.9,2.141a1.662,1.662,0,0,1-1.414-.257Z" transform="translate(-615.593 -356.142)" fill="#6c63ff"/>
  <circle id="Ellipse_1" data-name="Ellipse 1" cx="9.108" cy="9.108" r="9.108" transform="translate(235.414 121.842)" fill="#ffb8b8"/>
  <path id="Path_514" data-name="Path 514" d="M763.372,516.068a4.593,4.593,0,0,1-2.848-.982l-15.5-12.226a3.77,3.77,0,0,1-.384.113,4.08,4.08,0,1,1,3.037-4.9h0a3.926,3.926,0,0,1,.085.539L763.52,507.7l3.921-2.257,4.343,5.686-5.746,4.1A4.589,4.589,0,0,1,763.372,516.068Z" transform="translate(-535.984 -349.266)" fill="#ffb8b8"/>
  <path id="Path_515" data-name="Path 515" d="M805.568,509.5a1.661,1.661,0,0,1,.479-1.355l8.108-8.11a4.6,4.6,0,0,1,7.108,5.754l-5.774,8.9a1.671,1.671,0,0,1-2.308.491l-6.862-4.453A1.662,1.662,0,0,1,805.568,509.5Z" transform="translate(-577.464 -351.632)" fill="#6c63ff"/>
  <path id="Path_516" data-name="Path 516" d="M832.271,442.769a1.474,1.474,0,0,0,2.11.121,16.476,16.476,0,0,0,4.7-6.137,10.932,10.932,0,0,0,.01-8.913,12.3,12.3,0,0,0-5.226-4.824,8.528,8.528,0,0,0-2.54-1.073,3.335,3.335,0,0,0-2.653.522,2.8,2.8,0,0,0-1.067,2.68,8.289,8.289,0,0,0-3.635-2.728,4.214,4.214,0,0,0-2.8-.188,5.128,5.128,0,0,0-2.822,3.184,7.1,7.1,0,0,0-.466,3.435,4.127,4.127,0,0,0,1.583,2.845,4.456,4.456,0,0,0,3.691.336A28.9,28.9,0,0,1,826.871,431a3.5,3.5,0,0,1,3.422,1.309,6.339,6.339,0,0,1,.765,2.84l.563,5.191a6.876,6.876,0,0,0,.474,2.166A1.209,1.209,0,0,0,832.271,442.769Z" transform="translate(-585.188 -303.299)" fill="#2f2e41"/>
  <g id="Group_55" data-name="Group 55" transform="translate(102.842 175.295)" style="isolation: isolate">
    <path id="Path_517" data-name="Path 517" d="M467.814,574.842H480.38V577.3H470.364v7.437h9.045v2.428h-9.045v9.409h-2.55Z" transform="translate(-467.814 -574.842)" fill="#3f3d56"/>
    <path id="Path_518" data-name="Path 518" d="M509.881,574.842h2.579v21.73h-2.579Z" transform="translate(-494.281 -574.842)" fill="#3f3d56"/>
    <path id="Path_519" data-name="Path 519" d="M528.295,606.024a6.611,6.611,0,0,1-1.472-4.584V591.7H529.4v9.349a4.525,4.525,0,0,0,1,3.248,3.587,3.587,0,0,0,2.7,1.033,3.992,3.992,0,0,0,2.32-.7A4.729,4.729,0,0,0,537,602.81a5.207,5.207,0,0,0,.562-2.368V591.7h2.581v15.479h-2.459v-2.246h-.122a5.113,5.113,0,0,1-2.034,1.943,5.957,5.957,0,0,1-2.975.789A5.43,5.43,0,0,1,528.295,606.024Z" transform="translate(-504.939 -585.448)" fill="#3f3d56"/>
    <path id="Path_520" data-name="Path 520" d="M575.875,599.94a3.962,3.962,0,0,1-1.35-.834,3.8,3.8,0,0,1-.911-1.36,5.156,5.156,0,0,1-.3-1.886v-9.239h-2.7v-2.337h2.7v-4.371h2.579v4.371h3.764v2.337h-3.764v8.625a3.116,3.116,0,0,0,.485,1.924,2.062,2.062,0,0,0,1.67.683,3.138,3.138,0,0,0,1.7-.516v2.519a3.957,3.957,0,0,1-.925.3,6.556,6.556,0,0,1-1.2.091A4.873,4.873,0,0,1,575.875,599.94Z" transform="translate(-532.488 -578.033)" fill="#3f3d56"/>
    <path id="Path_521" data-name="Path 521" d="M605.415,599.94a3.962,3.962,0,0,1-1.35-.834,3.8,3.8,0,0,1-.911-1.36,5.156,5.156,0,0,1-.3-1.886v-9.239h-2.7v-2.337h2.7v-4.371h2.579v4.371h3.764v2.337h-3.764v8.625a3.117,3.117,0,0,0,.485,1.924,2.062,2.062,0,0,0,1.67.683,3.138,3.138,0,0,0,1.7-.516v2.519a3.955,3.955,0,0,1-.925.3,6.556,6.556,0,0,1-1.2.091A4.893,4.893,0,0,1,605.415,599.94Z" transform="translate(-551.073 -578.033)" fill="#3f3d56"/>
    <path id="Path_522" data-name="Path 522" d="M632.692,605.773a7.369,7.369,0,0,1-2.746-2.928,8.862,8.862,0,0,1-.987-4.2,9.232,9.232,0,0,1,.925-4.127,7.468,7.468,0,0,1,2.626-3,6.994,6.994,0,0,1,3.945-1.123A7.452,7.452,0,0,1,640.4,591.4a6.746,6.746,0,0,1,2.564,2.808,9.04,9.04,0,0,1,.9,4.1,3.057,3.057,0,0,1-.091.789H631.541a6.11,6.11,0,0,0,.851,2.975,4.942,4.942,0,0,0,1.926,1.821,5.214,5.214,0,0,0,2.442.607,5.037,5.037,0,0,0,4.584-2.791l2.184,1.063a7.779,7.779,0,0,1-2.717,2.975,8.165,8.165,0,0,1-8.118.024Zm8.436-8.8a5.01,5.01,0,0,0-.547-1.943,4.171,4.171,0,0,0-1.532-1.639,4.8,4.8,0,0,0-2.626-.667,4.361,4.361,0,0,0-3.08,1.169,5.627,5.627,0,0,0-1.654,3.08Z" transform="translate(-569.198 -584.621)" fill="#3f3d56"/>
    <path id="Path_523" data-name="Path 523" d="M677.24,590.87H679.7v2.488h.122a4.209,4.209,0,0,1,1.761-2.124,4.932,4.932,0,0,1,2.732-.851,4.515,4.515,0,0,1,1.821.335v2.763a4.834,4.834,0,0,0-2.184-.485,3.607,3.607,0,0,0-2.065.638,4.613,4.613,0,0,0-1.5,1.718,4.96,4.96,0,0,0-.562,2.328v8.67h-2.579V590.87Z" transform="translate(-599.574 -584.619)" fill="#3f3d56"/>
  </g>
  <path id="Path_524" data-name="Path 524" d="M398.758,337.858l33.767,33.926-31.893-.371-11.867-11.867Z" transform="translate(-244.591 -212.563)" fill="#01579b"/>
  <path id="Path_525" data-name="Path 525" d="M412.445,359.143l-23.68,7.937,14.488-17.247Z" transform="translate(-244.591 -220.097)" fill="url(#linear-gradient)"/>
  <path id="Path_526" data-name="Path 526" d="M364.672,149.89,297.166,217.4l-15.891-15.887L332.9,149.89Z" transform="translate(-176.964 -94.303)" fill="#54c5f8"/>
  <path id="Path_527" data-name="Path 527" d="M345.265,306.654l27.814-27.814h31.893l-43.76,43.39Z" transform="translate(-217.223 -175.432)" fill="#54c5f8"/>
  <path id="Path_528" data-name="Path 528" d="M361.562,310.52,377.452,326.4l-15.741,15.943-15.947-15.576Z" transform="translate(-217.538 -195.363)" fill="#29b6f6"/>
</svg>
